<svg xmlns="http://www.w3.org/2000/svg" id="Layer_1" viewBox="0 0 3840 5830"><defs><style>.st0{fill:#fff}</style></defs><path id="Tower_x5F_A" d="m1587.44 2135.33-46 26-38-13h-14.5l-66.67 36.83 5.17 2.5-6.33 2.17 1.17 38.83-105.17 60.33-49.33-16.33-77 40.5 1.83 45.33-50.83 27v9.33l2.33 1.33 1.17 37.5-29.33 21.83-1.33 17.83 14.67 4.83-12.39 12.89-.44 11.89 17.33 5.11.11 2.11-17.44 13 1.33 11.78 17.33 6.22-1.33 3.11-14 10.78-1.78 12.11 17.67 6.44-.11 2.67-14.78 10.67-.44 12.33 17.44 7.44-.22 2.56-14.22 10.78-1.22 12.22 16.44 6.78-.56 3.56-14.78 9.78.33 13.89 17.33 4.78-.56 2.22-15.11 10.78-.22 13.56 16.56 6.11-2.78 3.89-11.56 8.56-1.56 13.22 17.33 6.11-.33 3.56-15 9.78-.78 12.78 17.44 6-.44 2.56-16.33 11.44.22 11.56 18.22 7.11-14.44 12.67-1.78 11.78 17.44 6.67-15.44 12.78-1.22 11.89 16.44 8.44-13.78 10.78-1.33 12.78 17.78 6.67-18.33 16.89-2.67 6 21.56 9.22-14.78 12.56-1.44 12.89 17.89 5.56s-15.44 14.56-15.56 14.89-.22 9.44-.22 9.44l17.11 7.78-16.11 12.56-.22 12.22 18.44 6.67-15.11 11.44-1.89 12 18 6.67-16 12.67-.89 12.44 18 5.67-14.89 12.11-.89 13.22 15.67 6.11-16.89 12 .89 11 16.33 7.56-12.89 13.22-1 11.67 16.22 6.22-14.11 10.11-1.56 13.67 17 7.11-13.33 10.44-2.33 13.44 15.78 6.56-19.67 17.89-1.11 13.67 14.78 5.44-13.56 12.67-.67 11.89 16.89 6-14.22 12.44-.11 11.22 14.11 6.33-12.44 9.44-.78 15.11 14.11 5.11-10.67 9-2.67 16 14.22 5.33-12.11 10.22-.56 14.78 12.56 4.44-11 14.67-.56 10 14.11 6.33-10.67 12.56-2 10.33 14.44 7.22-12.22 9.11-1.44 14.11 16.78 6.44-13.56 11.22-.28 12.33 162.11 67.89 107.28-56.94 334.78-249.67-21.33-1112-148.56-52Z" class="st0"/><path id="Tower_x5F_B" d="m2149.11 2146.78-127.33 42.89-1.11 41.11-55.78 18.44-7.06 1034.67-89.55-45.17-110.95 60.61-21.33-1112-148.56-52 52.34-28.77v-41.78l33.78-19.78 6.44 1.33 7.33-4.22 45.11 13.78 87.34-52 131.33 41.11-28.22 14.44 53.78 16.23 42.66-11.78 103.34 64.89-1.78 8.66 10.89-3.55z" class="st0"/><path d="m2576 2464.17-18.83 6.66 17 12.17v10.67l-18.17 7.83 16.17 13.33.83 13.34-19 4.5 17.33 14 1 11.83-18 7.5 16 12 2 14.67-18.16 5.33 15.16 16 .84 11.17-17.67 6.5 16.5 15v11.16l-17.17 5 15.5 14.5.84 12.17-17.17 6.5 14.83 12.83 1 12.34-17.5 5.66 15.5 14.5v12.5l-15.83 5.5 14.33 13.17 1.5 13.83-16 6.17 14.84 12.83v12.5l-17.34 4.67 15.67 15.67.83 12.16-18.5 4.5 17 14.67-.83 11.33-18.5 5.5 17 13.5 1.5 12.34-17.5 6.33 15 13.33v11.84l-16.17 6 15.17 12.66 1 12.17-17.67 6.17 15.67 12.16 2 12.67-17.67 7.5 15.67 12.5v11.5l-16.67 7.67 14.34 12.33 1.5 11-15.67 7.33 13.5 9.84 2.17 13.66-18.67 5.67 15.33 10.5.17 14.33-16.17 7.34 16.5 11.5v12l-17.66 6.66 14.83 12.5 2 10.84-15.5 8.5 12.83 10.5 1.67 12.83-15.17 6.17 18.84 17.83 1 12.67-11.67 6.83 11 10.67v14l-16.5 6.16 13.5 10.17 1.67 12.33-16.5 6.84 17.83 13.5-1.5 10-17.67 7.5 15 10 .67 13.83-14.17 5.33 12.67 10v3.6l-78.28 33.51-5.11-5.33-56.55 20.78-.73 6.72-2.66-.67-8.17 5.12-1.11 4.77 3.44 3.78-86 29.33c-16.78 10.71-26.49 20.67-30.19 30-128.66-86.6-243.69-167.24-327.7-234.38l1.39-9.17 7.06-1034.67 55.78-18.44 1.11-41.11 127.33-42.89 14.17 6.22 41.89-13.22 3.89 2.55 8.44-3.11 63.11 39.34-1.89 40.77 101.56 60.67 42-12.78 3.66 1.89 7.23-2.67 68.66 40.67-2.83 41.22 51.17 30.5v9.34l-2.67.5V2423l28.5 27.17z" class="st0"/></svg>