<svg xmlns="http://www.w3.org/2000/svg" id="Layer_1" viewBox="0 0 3840 5830"><defs><style>.st0{fill:#fff}</style></defs><path id="Floor_F_33" d="m1497.35 2429.46-112.67 98.83 1.28 12.89-2.33 1.17.72 7.39 9.61 2.16-.22 7.73-10.11 7.94v8.39l-3.39.55 1 5.95 10.55 1.5-.39 14.78-9.22 5.33-.11 8.56-2.78 1.44.89 5.67 9.67 2.77 13.97-10.52-.33-17.09 29-26.33 1 5.33 9.08.09-.17-6.75 29-26.25 113.86 16.33-6.44 6.89 41.33 8.22 10.23-3.33 92.44 19.55v7.34l26.61 5.44 8.5-4.22 86.64 23.17v-14.5l-10.25-2.84-.08-15.91 11.25-4.5.5-14.5-12-3.25.5-10 11.5-5.42.55-33.39-121.33-28.67.17-11.66-91-20.67-18.67 4z" class="st0"/><path id="Floor_F_32" d="m1844.99 2656.24-2.34 2.55-85.66-23.11-7.45 5.22-27.44-5.89v-7.11l-93.34-18.77-10.55 3-40.45-6.89 6.34-6.34-113.11-16.55-30.45 27.89-9.33-.67-30.89 26 1 7.89-13.56 9.44v7.34l-9.44-2c-4.03-4.17-1.56-12.42-1.56-12.42l12.34-7.75.65-15.59.1.03 13.97-10.52-.33-17.09 29-26.33 1 5.33 9.08.09-.17-6.75 29-26.25 113.86 16.33-6.44 6.89 41.33 8.22 10.23-3.33 92.44 19.55v7.34l26.61 5.44 8.5-4.22 75.39 20.16v8.42l-.67 15.34 11.78 2.77z" class="st0"/><path id="Floor_F_31" d="M1850.26 2679.18v14.08l-128.83-20.16.42-6.67-94.75-18.75-10 5-41.42-6.75 8.42-5.75-116.25-15.58-29.17 26.75-9.42-.84-29.25 23.5-.66 8.84-14 8.75.08 7.41-8.92-2.83v-14.08l10.67-5.84.58-16.02v-7.34l13.56-9.44-1-7.89 30.89-26 9.33.67 30.45-27.89 113.11 16.55-6.34 6.34 40.45 6.89 10.55-3 93.34 18.77v7.11l27.44 5.89 7.45-5.22 85.66 23.11-9.3 4.89-.09 11.42z" class="st0"/><path id="Floor_F_30" d="m1848.9 2716.39.5 16.67-129.16-18.42v-9.67l-94.42-15.5-10.42 5-40.5-6.91 8.34-5.17-117.09-15.33-32.36 24.69-5.55 2.14-30.75 17.75v10.83l-13.84 8.34v6.87l-10.46-2.12 2.75-15.75 9.88-5.75-.39-15.05-.08-7.41 14-8.75.66-8.84 29.25-23.5 9.42.84 29.17-26.75 116.25 15.58-8.42 5.75 41.42 6.75 10-5 94.75 18.75-.42 6.67 128.83 20.16-17.61 7.63.09 13.67z" class="st0"/><path id="Floor_F_29" d="m1832.68 2756.78 10.45 3v15.89l-88.45-19.89-6.33 4.78-29-5.12 1-5.44-95.67-15.78-9.89 1.89-43.44-6.11 9.33-6.11-117-13.67-30.89 25.28-8.16 2.18-31.23 22.65-12.61 9.78v6.22l-9.28-2 2.23-15.22 8.77-4.67 1.14-16.76v-6.87l13.84-8.34v-10.83l30.75-17.75 5.55-2.14 32.36-24.69 117.09 15.33-8.34 5.17 40.5 6.91 10.42-5 94.42 15.5v9.67l129.16 18.42-17.27 7.16z" class="st0"/><path id="Floor_F_28" d="M1843.9 2798.72v16.22l-90.33-19.55-7.89 5-26.55-4.89-.45-7.89-95.44-14.22-8.95 4.11-45.33-5.61 11.22-5-118.55-13.28-30.67 23.22-8 1.84-44.33 31.39.11 5.88-9.56-.83-.28-16.83 11.89-4.61v-23.56l12.61-9.78 31.23-22.65 8.16-2.18 30.89-25.28 117 13.67-9.33 6.11 43.44 6.11 9.89-1.89 95.67 15.78-1 5.44 29 5.12 6.33-4.78 88.45 19.89-11.78 4.05.55 17.34z" class="st0"/><path id="Floor_F_27" d="m1831.42 2836.1 11.22 2.22v15.78l-88.67-16.56-8.36 2.67-28.08-2v-8.33l-95-13.34-10.59 3.09-41.66-5.25 8.33-4.84-118.83-11.58-29.92 21.5-9.33 2.67-44.21 28.04.92 5.08-10-1.92-1.09-4.83 2.09-1.17.66-10 9.5-3.08.34-18.31-.11-5.88 44.33-31.39 8-1.84 30.67-23.22 118.55 13.28-11.22 5 45.33 5.61 8.95-4.11 95.44 14.22.45 7.89 26.55 4.89 7.89-5 90.33 19.55-12.37 2.94z" class="st0"/><path id="Floor_F_26" d="m1831.54 2876.28 11 2.41-.58 15.75-89.92-15.41-7.58 1.91-27.58-1.75.91-6.5-96.83-13.33-11.08 3.08-41.67-4.91 7.83-4.92-117.83-11.08-30.53 18.58-11.94-1.94-30.28 17.59.67 6.13-12 6.61.88 7.78-10.44-2v-6.45l1.89-10.55 9.89-3 .89-19.03-.92-5.08 44.21-28.04 9.33-2.67 29.92-21.5 118.83 11.58-8.33 4.84 41.66 5.25 10.59-3.09 95 13.34v8.33l28.08 2 8.36-2.67 88.67 16.56-11.35 3.18z" class="st0"/><path id="Floor_F_25" d="m1843.96 2934.19-91.92-13.75-8.41 2.67-27.42-1.5v-7.42l-96.5-11.75-9.92 2.84-43.41-5 9.41-4.5-120.16-9.67-31.88 17.83-10.29-1.5-27.71 15.42.71 5.29-15.08 7.63.66 5.29-7.71-1.17-3.25-5.96 2.8-1.79-.55-8.96 10.46-3.75 1.22-18.16-.88-7.78 12-6.61-.67-6.13 30.28-17.59 11.94 1.94 30.53-18.58 117.83 11.08-7.83 4.92 41.67 4.91 11.08-3.08 96.83 13.33-.91 6.5 27.58 1.75 7.58-1.91 89.92 15.41-11.25 4.09-.33 18.66 11.83.75z" class="st0"/><path id="Floor_F_24" d="m1841.79 2958.67.72 17.05-91.77-13.05-6.95 1.72-28.66-2.39v-6.89l-96.62-9-10.77 2.28-39.28-4.06 4.67-4.27s-119.84-7.73-119.56-7.73c0 .14-30.33 15.78-30.33 15.78l-11.89-1.39-27.67 13.39.61 5.67-14.22 5.66.06 4.62-8.56-.62-1.22-5.88v-11.73l11.69-3.66v-18.1l-.66-5.29 15.08-7.63-.71-5.29 27.71-15.42 10.29 1.5 31.88-17.83 120.16 9.67-9.41 4.5 43.41 5 9.92-2.84 96.5 11.75v7.42l27.42 1.5 8.41-2.67 91.92 13.75-13.17 3.87.34 20z" class="st0"/><path id="Floor_F_23" d="m1841.39 3000.39.75 16.5-91.92-12.08-9.66 2.16-26.09-1.91.67-7.67-98-7.67-10 2.59-44.42-2.84 8.34-3.91-120.09-7.84-31.75 13.75-10.37-1-28.92 13.84.33 4.25-12.66 5 .58 4.08-10.54-1.04-.71-7.63 2.63-1.21-1.05-8.04 10.42-2.87 1.2-20.79-.06-4.62 14.22-5.66-.61-5.67 27.67-13.39 11.89 1.39s30.33-15.64 30.33-15.78c-.28 0 119.56 7.73 119.56 7.73l-4.67 4.27 39.28 4.06 10.77-2.28 96.62 9v6.89l28.66 2.39 6.95-1.72 91.77 13.05-12.7 2.25.25 21.25z" class="st0"/><path id="Floor_F_22" d="m1829.96 3039.9 11.17 1.17v16.67l-92.17-10-6.67 2-29-1.34v-6l-97.58-6.83-9.33 1-44.67-1.92 8.5-4.5-122-6.33-30.25 14.28-9.33 1.39-31.34 10.58-11.5 5.42-.41 3.08-9.59-1.75.42-16.08 11.08-2.09.89-21.01-.58-4.08 12.66-5-.33-4.25 28.92-13.84 10.37 1 31.75-13.75 120.09 7.84-8.34 3.91 44.42 2.84 10-2.59 98 7.67-.67 7.67 26.09 1.91 9.66-2.16 91.92 12.08-12.26 1.26z" class="st0"/><path id="Floor_F_21" d="m1841.38 3100.46-92.5-8.25-36.67-.33v-3.25l-97.58-8.67-10.84 1.25-43.91-2.25 8.83-3.42-122.42-6.08-30.41 13.08-8.84.59-32.33 9.91-13.33 7.42-8.17-1.5-.42-17.08 12.17-2.34.42-20.97.41-3.08 11.5-5.42 31.34-10.58 9.33-1.39 30.25-14.28 122 6.33-8.5 4.5 44.67 1.92 9.33-1 97.58 6.83v6l29 1.34 6.67-2 92.17 10-12.09 2.3.17 21.84 11.42.91z" class="st0"/><path id="Floor_F_20" d="m1840.65 3124.43.73 17.67-93.84-7-5.28 1.39-31.05-.45.44-7.28-98.89-2.38-13.5-.34-39.55-.44 7.11-2.28-123.22-7.22-30.72 10.78-8.62-.06-30.72 10.11-12.55 5.83-8.84-1.05-2.05-4 2.28-1.95v-11.88l10.22-1.39-1.22-22.03 13.33-7.42 32.33-9.91 8.84-.59 30.41-13.08 122.42 6.08-8.83 3.42 43.91 2.25 10.84-1.25 97.58 8.67v3.25l36.67.33 92.5 8.25-12.78 1.8.11 22.06z" class="st0"/><path id="Floor_F_19" d="M1710.82 3179.07v-6.42l-99.25-2.16-10.92 1.25-34.91-.92.41-2.42-124.25-4.75-31.91 8.84-8.25-.34-29.84 9.75-14.41 3.92-8.75-2.58.91-15.84 10.42-4.16.92-20.48 12.55-5.83 30.72-10.11 8.62.06 30.72-10.78 123.22 7.22-7.11 2.28 39.55.44 13.5.34 98.89 2.38-.44 7.28 31.05.45 5.28-1.39 93.84 7-13.06 1.89.33 21.91 19 .75.42 17.09z" class="st0"/><path id="Floor_F_18" d="M1848.07 3208.88v18.33l-137.86-3.06v-5.08l-100.75-2.58-9.92.5-159.41-5.59-34 5.5-8.75-.08-50.42 9.58v-16.25l9.33-1.5 1.2-22.83 14.41-3.92 29.84-9.75 8.25.34 31.91-8.84 124.25 4.75-.41 2.42 34.91.92 10.92-1.25 99.25 2.16v6.42l116.75 3.97-.22 26.5z" class="st0"/><path id="Floor_F_17" d="m1840.4 3270.01-95.25-2.33-36.16-.67-100.84-3.33-10.08-.17-160.42-3.5-32.33 3.17-11.5.67-50.08 6.16 1.66-17.5h10.09l.64-27.85 41.25-7.84 8.75.08 34-5.5 159.41 5.59 9.92-.5 100.75 2.58v5.08l117.85 2.62h.01l-.25 26.91h11.67z" class="st0"/><path id="Floor_F_16" d="m1839.57 3313.94-94.83-1.16-37 .33s-.34-3.42 0-3.75c.33-.33-100.75-1.08-100.75-1.08l-9.59 2.16-162.91-2.33-33.67 2.5-7 .08-52.75 2.75 1.5-16.83 10.24-.33v-27.39l41.01-5.04 11.5-.67 32.33-3.17 160.42 3.5 10.08.17 100.84 3.33 36.16.67 82.25 2.01-.41 27.25 11.83-.58z" class="st0"/><path id="Floor_F_15" d="M1839.57 3358.31h-131.56l-102.66-1.56-9.45 1.33-162.66-.89-33.45.56-10.44-.33-40 .89-14.11-1.23v-17.77l16.54 1v-27.43l42.04-2.19 7-.08 33.67-2.5 162.91 2.33 9.59-2.16s101.08.75 100.75 1.08c-.34.33 0 3.75 0 3.75l37-.33 81.29.99.43.17-.67 26.7 12.89-.67z" class="st0"/><path id="Floor_F_14" d="m1839.57 3402.42-96.69 2.33-36.84.5v-3.5l-84.33.83-3.17 2-14.5-.66-10.25.89-163.66 1.88-33.67-.83-6.56-2.55-30.16 1.33-12.61.83-1-2.33-10.45-.33.33-18.23 13.34-.33v-25.94l40-.89 10.44.33 33.45-.56 162.66.89 9.45-1.33 102.66 1.56h118.53l-.66 26.94 12-.5z" class="st0"/><path id="Floor_F_13" d="M1838.38 3429.58v18l-95.45 3.34-38.33 1v-2.56l-84.34 2-2.44 1-15.44-1.22-9.45 1.67-166.22 4.22-32.33-2.45-7.34-2.33-30.11-1.44-24.67-2.67 1.78-19.11 11 1.78 2.09-25.34 12.61-.83 30.16-1.33 6.56 2.55 33.67.83 163.66-1.88 10.25-.89 14.5.66 3.17-2 84.33-.83v3.5l36.84-.5 82.94-2v27.61z" class="st0"/><path id="Floor_F_12" d="m1838.01 3491.89-96.25 5.42-37.58-.17v2.42l-85.17.16-3.5 1-15.41-.66-9.09.66-166.66 6.25-32.59-4.41-6.66-2.25-32.59-4-23.75-4.75 2.92-15.09 10.75.42.58-27.59 13.92 1.51 30.11 1.44 7.34 2.33 32.33 2.45 166.22-4.22 9.45-1.67 15.44 1.22 2.44-1 84.34-2v2.56l38.33-1 83.17-2.91-.67 26.63 11.83.17z" class="st0"/><path id="Floor_F_11" d="M1837.01 3519.97v17.92l-96.75 7-122.41 3.58-3.09-.75-15.25.5-9.41 1.5-167.5 9-35.17-7.41-4.5-3.25-31.08-4.25-24.42-4.59v-8.5l9.25 2-.33-9.91h3.41v-29.05l12.75 2.55 32.59 4 6.66 2.25 32.59 4.41 166.66-6.25 9.09-.66 15.41.66 3.5-1 85.17-.16v-2.42l37.58.17 82.99-4.67.26 27.83z" class="st0"/><path id="Floor_F_10" d="M1837.76 3565.69v17.89l-135.22 11.11-86 4.34-3 1.33-215.69 10.36-90.75-25.16v-6.09l2.75-.91.5-11.75 26.33.75 1.05-26.4 14.12 2.65 31.08 4.25 4.5 3.25 35.17 7.41 167.5-9 9.41-1.5 15.25-.5 3.09.75 122.41-3.58 84.61-6.12-.55 27.81z" class="st0"/><path id="Floor_F_9" d="M1836.15 3612.03v18.08c-24.25 3.58-79.12 8.29-134 13l-5.5 3-87.16 3.42-4 .75-8.09-.42-4.75 1.25c-35.59 3.88-117.99 7.99-197.33 12.08l-90.08-31.08 1.16-19.08 27.5-1 .55-18.89 63.4 17.58 215.69-10.36 3-1.33 86-4.34 122.64-10.08-.53 28.58z" class="st0"/><path id="Floor_F_8" d="M1836.99 3677.11 1699.76 3692l-91.88 8.44-5.34 1.56-10.22-.22c-48.04 4.86-120.9 9.34-199.94 13.72-34.28-12.87-65.84-25.32-90.17-36.67l1.67-17.77 26.94-1.78 1.13-17.95 63.37 21.86c79.34-4.09 161.74-8.2 197.33-12.08l4.75-1.25 8.09.42 4-.75 87.16-3.42 5.5-3c47.2-4.05 94.4-8.1 122.11-11.44l-.61 28.11 12.5-1z" class="st0"/><path id="Floor_F_7" d="m1836.21 3724.11-139.56 19.78-90.55 7.67-4.45 1.44-10.22.44-200.67 16.34-91.55-42.45.78-18.77 29.37-3.34v-14.45c18.96 7.93 40.4 16.24 63.02 24.73 79.04-4.38 151.9-8.86 199.94-13.72l10.22.22 5.34-1.56 91.88-8.44 123.95-13.45.5 24.78 11.22 1.89z" class="st0"/><path id="Floor_F_6" d="m1835.43 3772.33-135.78 19.23-5.77 1.11-89.23 10.77-4.33 1.34h-11.89l-201.22 18.44-90.78-47.66 1.11-20.56 28.22-1 1.27-13.77 63.73 29.55 200.67-16.34 10.22-.44 4.45-1.44 90.55-7.67 126.46-17.92-.35 27.92 11.89-.56z" class="st0"/><path id="Floor_F_5" d="m1836.01 3820.28-140.11 22.44-.66 5.67-92.23 8.11-5 1.78-11.66-.22-201.89 20.88-91.17-56.25 2.25-19.33 27.34-2.67.69-10.88 63.64 33.41 201.22-18.44h11.89l4.33-1.34 89.23-10.77 5.77-1.11 123.63-17.51.51 28.67 11.64.67z" class="st0"/><path id="Floor_F_4" d="m1835.57 3869.29-139.83 25.92-94.14 12.61-4.95.28-12.05 1.83c-62.1 9.21-130.94 16.4-203.89 22.36l-90.33-61.08 2.41-19 27.92-3.17.77-8.96 62.98 38.86 201.89-20.88 11.66.22 5-1.78 92.23-8.11.66-5.67 126.73-20.3.19 25.62 11.5 3.09z" class="st0"/><path id="Floor_F_3" d="M1822 3872.12v32.28l-5.44 7.33-3.11-3.55-5.34 1.78-7.11 6.22v9.33l-157.55 29.33 3.33-10.22 5.89-.66-10.56-8.12-9.33 4.34s.55-2.34.55-2.78-3.11-14-3.11-14l-3.89-10.33s-3.44 1.89-3.88 2c-.45.11-9.34 3.11-9.34 3.11l-.66 6.66h-6.67l-.67 4.78-2.78 4.78-4.77-10.56-11.67-4-.67 1.78.11 5.56 1.56 11.11v5.89l-.67 6.66-.66 13.23-207.45 24.66-91.09-66.08-.71-18.75 31.84-5.5v-8.01l62.45 42.23c72.95-5.96 141.79-13.15 203.89-22.36l12.05-1.83 4.95-.28 94.14-12.61z" class="st0"/><path id="Floor_F_2" d="m1796.86 3977.21-97.78 19.33-21.11 8.45 2.45-6.89-3.56-4.97-9.78-6.59 1.78-5.78-6.89-6.22-2.22-9.55-13.56.44-1.67-6.93-54.77 8.38h-4l-6.44 2.55-8.89.33-3.34 3.45-10.11.55-4.55 4.12-4.89 5.11-4.45-4.78-12.33 6.89v5.55l-2.56 2.48-3.88 3.63s4.55 6.56 5 6.56 1.44 5.89 1.44 5.89l-11.33-3.89-2.34 6-13.44 2.56-8.56 18-119.11 11.66-91.28-72.61 1.73-18.72 28.84-6v-3.48l62.96 45.67 207.45-24.66 57.89-9.23 129.94-24.19 5.58 12.41-2 12.03-5.33 1.34-8.89 3.33-9.33 2-2.67 17.56 2.67-.23 4.44-7.11 9.34-4.44-1.12 5.33 14.67 1.56 13.56-2z" class="st0"/><path id="Floor_F_1" d="m1809.49 4014.03-2.89 4.44-4.78 1.67-2.56 6.22-316.44 61.67-110 12.33-92.44-80.61 2.05-16.61 30.17-6.11.26-3.69 63.11 50.2 119.11-11.66 8.56-18 13.44-2.56 2.34-6 11.33 3.89s-1-5.89-1.44-5.89-5-6.56-5-6.56l3.88-3.63 2.56-2.48v-5.55l12.33-6.89 4.45 4.78 4.89-5.11 4.55-4.12 10.11-.55 3.34-3.45 8.89-.33 6.44-2.55h4l54.77-8.38 1.67 6.93 13.56-.44 2.22 9.55 6.89 6.22-1.78 5.78 9.78 6.59 3.56 4.97-2.45 6.89 21.11-8.45 92.12-18.21 3.84.81 1.82 2s1.96 6.78 2.18 7.33c.22.56 1.22 6.67 1.22 6.67l-.22 5.33s8.11 6.78 8.45 6.78 1 6.78 1 6.78" class="st0"/><path id="Floor_E_33" d="m2161.01 2690.89-69.22-19.67-11.11 3.67-15.44-3v-6.45l-75.89-16.77-13.17 2.33-32.61-5.72 7.94-5.95-95.16-15.11-23.54 14.32.51-11.75v-8.42l11.25 3.01v-14.5l-10.25-2.84-.02-4.59v-.01l-.06-11.31 11.25-4.5.5-14.5-12-3.25.5-10 11.5-5.42.55-33.39 115.14 29.76 27.33-1 74.34 17.67-.34 8.67 87.64 20.66-8.75 5.59-.08 4 17.75 6.58v16.67l-11.62-3.63-.05 16.9 10.73 3.39.22 14.17-10.59-3.28-.36 19.89 12.11 3.56z" class="st0"/><path id="Floor_E_32" d="M2162.06 2712.15v14l-69.5-18.75-10.59 4.59-17.08-4.59v-8l-75.58-15.16-11.92 3.5-33-5.67 7.17-4.92-96-14.25-21.7 13.34-.6-.14.09-11.42 9.3-4.89 2.34-2.55-.56-12.34-11.78-2.77.16-3.59 23.54-14.32 95.16 15.11-7.94 5.95 32.61 5.72 13.17-2.33 75.89 16.77v6.45l15.44 3 11.11-3.67 69.22 19.67-11.95 4.35.75 13.41z" class="st0"/><path id="Floor_E_31" d="m2162.86 2747.46-.8 13.67-68.12-18.17-7.75 3.58-19.75-3.08v-4.67l-77-14h-12c-36.71-11-80.41-20.6-128.04-29.41l-16.72 10.45-.03-3.94 17.61-7.63v-14.08l-16.4-3.94 21.7-13.34 96 14.25-7.17 4.92 33 5.67 11.92-3.5 75.58 15.16v8l17.08 4.59 10.59-4.59 69.5 18.75-11.95 3.39.17 14.42z" class="st0"/><path id="Floor_E_30" d="M2164.22 2783.35v13.66l-70.44-17.33-7.89 3.67-20.11-3.34v-4.33l-76.78-15.11-11.78 1.55c-41.36-11.93-83.96-21.29-127.82-28.06l-.5-16.67-16.16-1.83-.06-9.73 16.72-10.45c47.63 8.81 91.33 18.41 128.04 29.41h12l77 14v4.67l19.75 3.08 7.75-3.58 68.12 18.17-10.62 3.33-.11 14.44z" class="st0"/><path id="Floor_E_29" d="M2066.67 2815.24v-7.89l-76.89-11.22-13.11 3.33-32.56-4.67 8.78-4.44-96.56-11.11-6.93.44-17.8 8.92-.25-7.88 11.78-4.05v-15.89l-10.45-3-.55-16.56 17.27-7.16c43.86 6.77 86.46 16.13 127.82 28.06l11.78-1.55 76.78 15.11v4.33l20.11 3.34 7.89-3.67 70.44 17.33-12.89 3.23v10.55l19.89.34 1.11 17.44z" class="st0"/><path id="Floor_E_28" d="M2067.58 2852.21v-8.58l-76.91-9.42-13.5 3.33-33.17-4.66 9.25-4.84-98.5-8.66-23.26 6.73.04-7.23 12.37-2.94v-16.22l-12-1.66-.3-9.46 17.8-8.92 6.93-.44 96.56 11.11-8.78 4.44 32.56 4.67 13.11-3.33 76.89 11.22v7.89l105.66 13.33-19.66 5.64.41 14.25 21.92 1.5.83 15.25c-30.67-5.33-67.77-9.47-108.25-13" class="st0"/><path id="Floor_E_27" d="m2166.25 2890.93.58 13.92-71.58-14.17-9.83 1.92-17.67-1.84v-9.41l-77.25-9.17-12.08 3.33-35.17-3.83 9.67-3.92-98.09-9.66-23.43 8.23-.11-8.05 11.35-3.18v-15.78l-11.22-2.22.07-10.99 23.26-6.73 98.5 8.66-9.25 4.84 33.17 4.66 13.5-3.33 76.91 9.42v8.58c40.48 3.53 77.58 7.67 108.25 13l-21.83 4.8v17.34z" class="st0"/><path id="Floor_E_26" d="m2168.14 2940.32-71.83-11.67-8.84 1.67-19.5-1.5v-7.83l-76.83-9.34-13.33 2.67-33.84-3.5 10-4.33-100-9.21-23.38 9.14.12-6.89 11.25-4.09.58-15.75-11-2.41-.14-10.95 23.43-8.23 98.09 9.66-9.67 3.92 35.17 3.83 12.08-3.33 77.25 9.17v9.41l17.67 1.84 9.83-1.92 71.58 14.17-13.19 1.3 1 18.17 12.33 3z" class="st0"/><path id="Floor_E_25" d="M2069.31 2965.15v-8.33l-78.5-8.83-13.84 5.66-32.66-3.66 8.83-3.67-99.5-9.25-22.74 8.72-.11-6.73 13.17-3.87-1.75-16.25-11.83-.75.21-11.77 23.38-9.14 100 9.21-10 4.33 33.84 3.5 13.33-2.67 76.83 9.34v7.83l19.5 1.5 8.84-1.67 71.83 11.67-12.83 2.67v16.5l22 2 2 13.33z" class="st0"/><path id="Floor_E_24" d="m2156.97 2996.32 15.67 1.33v14.67c-29.24-5.54-65.17-7.5-103.83-8l2-6.67-79.5-7-12.84 2.17-35.5-3.33 9-3-100-7.77-22.05 9.84-.11-9.59 12.7-2.25-.72-17.05-10.66-.61-.23-13.27 22.74-8.72 99.5 9.25-8.83 3.67 32.66 3.66 13.84-5.66 78.5 8.83v8.33l110 9.67-23.34 5.17z" class="st0"/><path id="Floor_E_23" d="m2156.47 3035.49 13.34 1.66v14.67l-71.34-9.5-10.16 1.83-18.17-1.83s-.17-9.67 0-9.67-78.5-4.5-78.5-4.5l-12.5 4.5-34.83-2.83 8.16-3.83-99-6-23.56 6-.03-6.84 12.26-1.26-.75-16.5-11.33-1.17-.14-11.66 22.05-9.84 100 7.77-9 3 35.5 3.33 12.84-2.17 79.5 7-2 6.67c38.66.5 74.59 2.46 103.83 8l-16.17 4.5z" class="st0"/><path id="Floor_E_22" d="m2171.47 3088.32-12.79-1.23-60.21-5.77-8.66 1.83-19-1.33v-7.83l-78.5-5.84-13.17 3-33-.69 6.17-3.31-99.34-6.33-23.92 2.06v-1.84l12.08-2.3v-16.67l-11.17-1.17-.05-14.91 23.56-6 99 6-8.16 3.83 34.83 2.83 12.5-4.5s78.67 4.5 78.5 4.5 0 9.67 0 9.67l18.17 1.83 10.16-1.83 71.34 9.5-11.5 1.33-.5 19.67 12 .5z" class="st0"/><path id="Floor_E_21" d="m2172.81 3126.85-13.14-1.21-59.31-5.46-9.44 1.33-19.67-1.44v-9l-79.11-1.89-12.56 1.89-35.22-1.33 9.67-2.63-101.22-4.93-24.19 5.14-.02-4.06 12.78-1.8-.75-17.67-11.42-.91-.16-20 23.92-2.06 99.34 6.33-6.17 3.31 33 .69 13.17-3 78.5 5.84v7.83l19 1.33 8.66-1.83 60.21 5.77.57 23.42 12.22.89z" class="st0"/><path id="Floor_E_20" d="M2172.81 3149.46v15.5l-12.4-.75-59.44-3.58h-28.66l-.84-8.67-79-2.5-11.66 2.5-128-8.2-24.46 3.12-.03-1.89 13.06-1.89-.73-17.67-11.94-.11-.09-18 24.19-5.14 101.22 4.93-9.67 2.63 35.22 1.33 12.56-1.89 79.11 1.89v9l19.67 1.44 9.44-1.33 59.31 5.46.8 23.15z" class="st0"/><path id="Floor_E_19" d="m2174.81 3203.13-13.38-.69-60.62-3.15h-28.5v-5l-80.5-3-11.17 1.67-132.57-8.22-.42-17.09-19-.75-.3-20.02 24.46-3.12 128 8.2 11.66-2.5 79 2.5.84 8.67h28.66l59.44 3.58.9 23.75h11.5z" class="st0"/><path id="Floor_E_18" d="m2175.64 3241.63-13.05-.38-61.62-1.79-27.66 1.33v-6.83l-80-.83-12.34.83-132.9-5.75v-18.33l-20.72.66.22-26.5 20.5.7 132.57 8.22 11.17-1.67 80.5 3v5h28.5l60.62 3.15.54 24.35 12.84-.66z" class="st0"/><path id="Floor_E_17" d="M2175.64 3266.29v14.5l-12-.18-90.17-1.32v-2.66l-79.66-1.17h-11.84l-129.16-3.17-25.41-1.6 13 .32-.91-16.33h-11.67l.25-26.91 20 .44 132.9 5.75 12.34-.83 80 .83v6.83l27.66-1.33 61.62 1.79.38 25.04z" class="st0"/><path id="Floor_E_16" d="M2188.14 3320.24h-113l-.45-3.89-81.22.44-12.89.45-128.55-2.3h-12.46l-.75-17.58-11.83.58.41-27.25 25.41 1.6 129.16 3.17h11.84l79.66 1.17v2.66l90.17 1.32.28 24.52 22.89-.12z" class="st0"/><path id="Floor_E_15" d="M2187.03 3344.35v15.78l-21.72.09-89.95.35-.55-3.78-80.67.45-14.11 2.07h-140.46l-.89-18.34-12.89.67.67-26.7h25.57l128.55 2.3 12.89-.45 81.22-.44.45 3.89h88.98l.35 24.33z" class="st0"/><path id="Floor_E_14" d="M2179.25 3385.01v15.34l-12.95.23-61.05 1.1-29.11.44-1.33-2.66-65.23 1.55-3.22 1.67-12 .07h-11.67l-131.66.49-25.21.51 13.75-.33-1.69-17.67-12 .5.66-26.94h153.49l14.11-2.07 80.67-.45.55 3.78 89.95-.35.61 25.46z" class="st0"/><path id="Floor_E_13" d="m2180.69 3440.57-13.09.47-61.91 2.2-28.33.33-2.55-.67-65.12 1-3.55 1.56-11.33-.22-12.56.11-131.44 2.89-24.71.77 12.28-.43v-18l-12.56.78v-27.61l25.21-.51 131.66-.49h11.67l12-.07 3.22-1.67 65.23-1.55 1.33 2.66 29.11-.44 61.05-1.1.28 24.54 12.67-.44z" class="st0"/><path id="Floor_E_12" d="m2181.14 3480.57-12.34.73-90.77 5.38v-2.22c0-.56-68.78.11-68.78.11l-2.22 2.33-12.22-1.55-12.23 2.77-132.11 4.78-25.72.74 13.26-.75-.75-17.08-11.83-.17.67-26.63 24.71-.77 131.44-2.89 12.56-.11 11.33.22 3.55-1.56 65.12-1 2.55.67 28.33-.33 61.91-2.2.09 24.97h13z" class="st0"/><path id="Floor_E_11" d="m2183.53 3521.96-14.12 1.09-62.33 4.8-29.22.66v-3.22l-66.78 2.22-4.44 2.12-11.22-.12-12.67 1.78c-15.64 5.21-69.16 6.46-132.56 6.67l-13.18-2.8v-14.19l-12 .5-.26-27.83 25.72-.74 132.11-4.78 12.23-2.77 12.22 1.55 2.22-2.33s68.78-.67 68.78-.11v2.22l90.77-5.38-.16 25.77 13.44-.78z" class="st0"/><path id="Floor_E_10" d="m2183.08 3562.74-12.73 1.21-91.71 8.68-.56-2.12-67.33 4-3.22 1.23h-11.67l-4.22 1.55-141.89 7.34-11.99-4.84v-13.1l-13.44.89.55-27.81 12.14-.88v-3.73l13.18 2.8c63.4-.21 116.92-1.46 132.56-6.67l12.67-1.78 11.22.12 4.44-2.12 66.78-2.22v3.22l29.22-.66 62.33-4.8.56 25.69 12.45-.23z" class="st0"/><path id="Floor_E_9" d="M2184.75 3604.4c-3.48.8-8.06 1.58-13.51 2.34-.67.09-1.36.19-2.06.28-.64.09-1.3.18-1.97.26-.05.01-.11.02-.16.02-.72.1-1.46.19-2.21.28-1.07.14-2.17.27-3.29.4-.98.12-1.98.23-2.99.34l-.76.09c-.77.09-1.54.17-2.33.26-2.13.23-4.33.46-6.59.69-2.73.28-5.54.56-8.42.83-.39.04-.79.08-1.19.11-.89.09-1.79.17-2.7.26-1.68.16-3.39.31-5.11.47-1.22.11-2.46.22-3.7.33l-3.76.33-3.81.33c-1.56.13-3.13.27-4.71.4-2.9.25-5.83.49-8.79.74-8.59.71-17.36 1.42-26.05 2.13l-3.45.89-71.44 5.11-3.67.78-10.11.11-142.55 8.44-13.27-2.44v-15.15l-11.5 1.16.53-28.58 12.58-1.03v-4.79l11.99 4.84 141.89-7.34 4.22-1.55h11.67l3.22-1.23 67.33-4 .56 2.12 91.71-8.68.62 27.79 12.11-1.56z" class="st0"/><path id="Floor_E_8" d="M2186.08 3645.51c-3.94.93-8.69 1.86-14.1 2.78-.38.06-.76.13-1.14.19q-1.35.225-2.76.45c-4.75.76-9.93 1.52-15.45 2.27-2.12.28-4.29.57-6.51.86-2.4.31-4.86.62-7.36.93-.47.06-.94.12-1.41.17-8.26 1.02-17.01 2.03-26.03 3.04-.14.02-.27.03-.4.04-1.99.23-3.99.45-6 .67l-1.92.21c-2.59.28-5.2.57-7.82.85-.07.01-.13.02-.2.02-1.34.15-2.69.3-4.04.44-2.16.23-4.32.47-6.48.7-1.9.2-3.81.41-5.71.61v-2.34l-72.22 5.34-4.45 2.22-6.33-.22-4.56 1.77-141.66 10.67-12.77-4.15-.61-13.25-12.5 1 .61-28.11c4.5-.54 8.5-1.06 11.89-1.56v-2.93l13.27 2.44 142.55-8.44 10.11-.11 3.67-.78 71.44-5.11 3.45-.89c8.69-.71 17.46-1.42 26.05-2.13 2.96-.25 5.89-.49 8.79-.74 1.58-.13 3.15-.27 4.71-.4l3.81-.33 3.76-.33c1.24-.11 2.48-.22 3.7-.33 1.72-.16 3.43-.31 5.11-.47.91-.09 1.81-.17 2.7-.26.4-.03.8-.07 1.19-.11 2.88-.27 5.69-.55 8.42-.83 2.26-.23 4.46-.46 6.59-.69.79-.09 1.56-.17 2.33-.26l.76-.09c1.01-.11 2.01-.22 2.99-.34 1.12-.13 2.22-.26 3.29-.4.75-.09 1.49-.18 2.21-.28.05 0 .11-.01.16-.02.67-.08 1.33-.17 1.97-.26.7-.09 1.39-.19 2.06-.28l.95 24.88 13.12-1z" class="st0"/><path id="Floor_E_7" d="m2186.64 3689.07-13.75 1.83-90.81 12.06-3.55-.67-71.45 5-5.44 3h-4.89l-3.67 1.67-144.11 11.55-13.08-6.07-.46-11.22-11.22-1.89-.5-24.78 13.28-1.44-.23-5.08 12.77 4.15 141.66-10.67 4.56-1.77 6.33.22 4.45-2.22 72.22-5.34v2.34c1.9-.2 3.81-.41 5.71-.61 2.16-.23 4.32-.47 6.48-.7 1.35-.14 2.7-.29 4.04-.44.07 0 .13-.01.2-.02 2.62-.28 5.23-.56 7.82-.85l1.92-.21c2.01-.22 4.01-.44 6-.67.13-.01.26-.02.4-.04 9.02-1.01 17.77-2.02 26.03-3.04.47-.05.94-.11 1.41-.17 2.5-.31 4.96-.62 7.36-.93 2.22-.29 4.39-.58 6.51-.86 5.52-.75 10.7-1.51 15.45-2.27q1.41-.225 2.76-.45c.38-.06.76-.13 1.14-.19l1.21 24.56 12.23.66z" class="st0"/><path id="Floor_E_6" d="M2187.97 3731.07c-3.01.8-7.49 1.71-13.1 2.7-.03.01-.07.01-.1.02-.6.1-1.22.21-1.85.32a829 829 0 0 1-13.08 2.12c-.28.04-.56.08-.84.13-1.27.2-2.56.39-3.88.59-.05 0-.11 0-.17.03-1.26.18-2.55.37-3.85.57-.45.07-.91.13-1.37.2-.92.13-1.85.27-2.79.41-.93.14-1.88.28-2.84.41-.95.14-1.92.28-2.89.42-1.36.2-2.74.39-4.13.59-.1.01-.2.02-.3.04-1.98.28-4 .57-6.04.85-1.09.16-2.19.31-3.29.46-1.31.19-2.62.37-3.95.55-.69.1-1.39.19-2.09.29-1.05.15-2.11.29-3.17.44-4.27.59-8.61 1.18-12.97 1.78-1.37.18-2.74.37-4.11.56-6.18.84-12.39 1.68-18.52 2.52l-4.11.33-71.34 7.34-4.22-.12-6.33 4.12-4.78.22-143 11.82s-9.25-3.84-13.78-5.9l-.43-10.55-11.89.56.35-27.92 13.1-1.86-.32-7.67 13.08 6.07 144.11-11.55 3.67-1.67h4.89l5.44-3 71.45-5 3.55.67 90.81-12.06 2.08 24.28h11.67z" class="st0"/><path id="Floor_E_5" d="M2188.67 3773.65c-2.55 1.1-7.01 2.33-12.89 3.67q-1.245.285-2.58.57c-.85.19-1.74.37-2.65.57q-2.895.6-6.09 1.23c-.95.19-1.92.37-2.9.56q-1.56.3-3.18.6c-.72.14-1.44.27-2.17.4q-2.265.42-4.62.84c-.23.05-.46.09-.7.13-.59.11-1.2.22-1.8.32-.12.03-.25.05-.37.07-.92.16-1.85.33-2.79.49-7.27 1.28-15.05 2.59-23.07 3.92-1.15.2-2.3.39-3.47.58-4.9.81-9.88 1.63-14.86 2.44l-3.31.54c-3.96.65-7.93 1.3-11.85 1.95-1.22.2-2.44.4-3.65.6l-.91.15c-1.08.18-2.16.36-3.23.54v-1.67l-74.58 9.75-4.08 1.5h-5.5l-4.09.84-144.41 14.41-13.24-6.95-.25-7.31-11.64-.67-.51-28.67 12.15-1.72-.35-8.45c4.53 2.06 13.78 5.9 13.78 5.9l143-11.82 4.78-.22 6.33-4.12 4.22.12 71.34-7.34 4.11-.33c6.13-.84 12.34-1.68 18.52-2.52 1.37-.19 2.74-.38 4.11-.56 4.36-.6 8.7-1.19 12.97-1.78 1.06-.15 2.12-.29 3.17-.44.7-.1 1.4-.19 2.09-.29 1.33-.18 2.64-.36 3.95-.55 1.1-.15 2.2-.3 3.29-.46 2.04-.28 4.05-.56 6.04-.85.1-.02.2-.03.3-.04 1.39-.2 2.77-.39 4.13-.59.97-.14 1.94-.28 2.89-.42.96-.13 1.91-.27 2.84-.41.94-.14 1.87-.28 2.79-.41.46-.07.92-.13 1.37-.2 1.3-.2 2.59-.39 3.85-.57.06-.02.12-.03.17-.03 1.32-.2 2.61-.39 3.88-.59.28-.05.56-.09.84-.13q1.38-.21 2.7-.42c3.74-.59 7.22-1.16 10.38-1.7.63-.11 1.25-.22 1.85-.32.03-.01.07-.01.1-.02l.88 20.88 12.22 3.42z" class="st0"/><path id="Floor_E_4" d="M2190.67 3817.35c-2.14 1.07-6.88 2.34-13.45 3.74-.65.14-1.31.28-1.99.42-1.96.4-4.06.82-6.29 1.25q-1.41.27-2.88.54c-2.47.46-5.07.93-7.77 1.4-.9.16-1.81.32-2.74.48-1.88.33-3.8.66-5.75.99-.92.16-1.84.31-2.77.46-1.66.29-3.33.57-5.03.84-1.27.22-2.55.43-3.84.64-.18.03-.35.06-.52.09-.97.15-1.94.31-2.91.47-.91.15-1.83.3-2.75.45-2.24.36-4.5.72-6.78 1.09-1.07.17-2.15.34-3.23.51-1.62.26-3.26.52-4.9.78-.71.12-1.42.23-2.13.34-7.99 1.28-16.03 2.55-23.8 3.81-.95.15-1.89.3-2.82.46-.27.04-.54.08-.81.13q-1.035.165-2.04.33c-.68.11-1.36.22-2.03.33l-75.77 11-4.45 2.34-5.78.11-3.77 1.33-145.45 14.67-13.33-5.96-.57-8.26-11.5-3.09-.19-25.62 13.38-2.14-.33-9.58 13.24 6.95 144.41-14.41 4.09-.84h5.5l4.08-1.5 74.58-9.75v1.67c1.07-.18 2.15-.36 3.23-.54l.91-.15c1.21-.2 2.43-.4 3.65-.6 3.92-.65 7.89-1.3 11.85-1.95l3.31-.54c4.98-.81 9.96-1.63 14.86-2.44 1.17-.19 2.32-.38 3.47-.58 8.02-1.33 15.8-2.64 23.07-3.92.94-.16 1.87-.33 2.79-.49.12-.02.25-.04.37-.07.6-.1 1.21-.21 1.8-.32.24-.04.47-.08.7-.13q2.355-.42 4.62-.84c.73-.13 1.45-.26 2.17-.4q1.62-.3 3.18-.6c.98-.19 1.95-.37 2.9-.56q3.195-.63 6.09-1.23c.91-.19 1.79-.38 2.65-.57q1.335-.285 2.58-.57l.44 21.14 12.45 3.11z" class="st0"/><path id="Floor_E_3" d="M2177.22 3821.09v19.09s-4.89-.11-5.22-.22-2-1.67-2.11-2.78-3.11-6.11-4.22-6.78c-1.11-.66-5.56-.11-6.11 0-.56.11-9.23 3.45-9.23 3.45s-4.33.89-6 1.44c-1.66.56-4.33 1-4.77 1.34-.45.33 1.33 4.44 1.33 4.44s2-2.11 6-3.67c4-1.55.33 3.23.55 5 .23 1.78 2.89 9.56 2.89 9.56s-3.66 3.89-4.33 4-2.11-4.78-2.11-4.78l-5.89-1.11s-1.22-4.22-1.22-5.67-6.56-.66-6.56-.66l-7.33 3.77-.22-5-13.45 6.67-24.55 1.33-9.67 17.67s32.33-.67 33.33-1.11 16.23 10.44 16.23 10.44l-29.56 3.12-92.56 12.88 1.45-3.33 2.11-4v-9.22l-7.56 4.33-13.33 8.56-5.5 10.61-131 15.17s-.07-.03-.2-.08c-.06-.02-.14-.06-.24-.09-1.21-.48-4.68-1.86-7.85-3.1-.69-.27-1.37-.54-2.01-.79-.2-.07-.39-.15-.58-.22-1.93-.76-3.37-1.31-3.45-1.31-.25 0-.92-6.58-.92-6.58l-1.42-4-8.16-1.17-1.78.41v-25.58l-4.48.52 18.05-3.35-.68-9.9 13.33 5.96 145.45-14.67 3.77-1.33 5.78-.11 4.45-2.34 75.77-11c.67-.11 1.35-.22 2.03-.33q1.005-.165 2.04-.33c.27-.05.54-.09.81-.13.93-.16 1.87-.31 2.82-.46 7.77-1.26 15.81-2.53 23.8-3.81.71-.11 1.42-.22 2.13-.34 1.64-.26 3.28-.52 4.9-.78 1.08-.17 2.16-.34 3.23-.51 2.28-.37 4.54-.73 6.78-1.09.92-.15 1.84-.3 2.75-.45.97-.16 1.94-.32 2.91-.47.17-.03.34-.06.52-.09 1.29-.21 2.57-.42 3.84-.64 1.7-.27 3.37-.55 5.03-.84.93-.15 1.85-.3 2.77-.46 1.95-.33 3.87-.66 5.75-.99.93-.16 1.84-.32 2.74-.48 2.7-.47 5.3-.94 7.77-1.4q1.47-.27 2.88-.54c2.23-.43 4.33-.85 6.29-1.25.68-.14 1.34-.28 1.99-.42" class="st0"/><path id="Floor_E_2" d="M2192.28 3886.96v18.17l-93.67 21-9.33 3.16-85.34 17.34-26.16 2.22-93.67 13h-11.67l-6.88-2.35s-6.23-8.32-6.34-8.65c-.11-.34-8.89-4.11-8.89-4.11l-7.44.22-9.45 2.89-2.88-4.34 6.22-8.44s8.33-7 9.66-7.67c1.34-.66 0-7.66 0-7.66l-6.11-1.23-3.55-.44 3.55-3-2.6-5.72c4.25 1.65 10.88 4.28 10.88 4.28l131-15.17 5.5-10.61 13.33-8.56 7.56-4.33v9.22l-2.11 4-1.45 3.33 92.56-12.88 29.56-3.12s-15.23-10.88-16.23-10.44-33.33 1.11-33.33 1.11l9.67-17.67 24.55-1.33 13.45-6.67.22 5 7.33-3.77s6.56-.78 6.56.66 1.22 5.67 1.22 5.67l5.89 1.11s1.44 4.89 2.11 4.78 4.33-4 4.33-4-2.66-7.78-2.89-9.56c-.22-1.77 3.45-6.55-.55-5-4 1.56-6 3.67-6 3.67s-1.78-4.11-1.33-4.44c.44-.34 3.11-.78 4.77-1.34 1.67-.55 6-1.44 6-1.44s8.67-3.34 9.23-3.45c.55-.11 5-.66 6.11 0 1.11.67 4.11 5.67 4.22 6.78s1.78 2.67 2.11 2.78 5.22.22 5.22.22l.89 25.11 3.67 22.84z" class="st0"/><path id="Floor_E_1" d="m2193.58 3949.51-102.33 25.17-85.36 18.22s-.33 7.5-.33 10.17-5.59 1.58-5.59 1.58l-4.66-4.91-3.84-4.84-1.75.67-3.16.83-.84-5.75-6.5.17-8.83 3.92-.92 3.41c-37.04 5.93-78.05 11.24-121.69 16.14l-12.28-3.94s-.06-5.11-.06-5.61-.77-7.17-.77-7.78-2.17-4.17-2.17-4.17l-1.39-4.61-1.78-3.44-3.89-4.11h-4.77v-9.12l2.08.34s5 .55 5.56.44c.55-.11 3.55-.55 3.55-.55l2.95-1.45s4.83.28 7 .22c2.16-.05 4.72 1.23 4.72 1.23l4.89 4.22s4.72 3.72 5.39 5c.66 1.28 4.83 1.61 4.83 1.61l6.11 4.83 9.11 5.5 1.39-3.77-2.5-5.39-4.78-4 1.67-8.67s5-2.28 5.17-2.39c.16-.11-.23-3.67-.23-3.67l-.94-3.16h7.47l93.67-13 26.16-2.22 85.34-17.34 9.33-3.16 90-20.18.64 2.56-.17 2.84-5.16 10-3.67 8 12.03 3.83z" class="st0"/></svg>