<svg xmlns="http://www.w3.org/2000/svg" id="Layer_1" viewBox="0 0 3840 5830"><defs><style>.st0{fill:#fff}</style></defs><path id="Floor_A_33" d="M2532.11 2025.67 2406.33 2055l1.03 8.78-35.75 10-6.92-1.08-101.33 31-30.42 9.92-7.5-6.83-93.75 37.75-.33 16.42 11.86 8.58-2.33 8.22-8.22 3.33-.22 13.33 10 10.11 1 10.33-10.22 2 .89 17.44c23.77-10.79 58.27-22.15 95.67-33.67l8 7.44 30.56-8.89 102.22-24.89-.56-8.44 6.89 3.56 44.22-11.44-8.67-8 125.56-24.78 29 38.22 10.33-1.11 24.22 35.33-5.44 2.56 3 7 16 26.22v-13.78l-5.44-7.78-4.11.67-1.33-15.56 9.89-4.22.33-7.78-12.33-13.33-.44-9 7.89-2.56 1.33-4.33-1.67-1.89.89-11.89-8.17-8.39-4.5-1-5.17-7.17 3.67-4.17-7.5-12.5 1.83-2.33-23.5-36.17-8 1-22-30.33 2.5-3-7.17-12.25Z" class="st0"/><path id="Floor_A_32" d="M2619.17 2257.92v13.33l-13.56-20-5.33-6.11-.11-5.22 4.77-1.56-26.77-34.55-9.45 1-26.66-36.45-125.34 23.33 6.11 8.78-42 10.67h-8.11v2l-102.33 25.33-31.33 9.22-7.67-6.66-97.28 32.11v-19.33l11.83-1.67v-9.33l-11.83-8.5c23.77-10.79 58.27-22.16 95.67-33.67l8 7.44 30.55-8.89 102.23-24.88-.56-8.45 6.89 3.56 44.22-11.45-8.67-8 125.56-24.78 29 38.23 10.33-1.11 24.23 35.33-5.45 2.55 3 7 16 26.23-7.83 2.05.78 10.67z" class="st0"/><path id="Floor_A_31" d="m2624.11 2294.72-.44 14.78-17.45-20.78-1.55-3.44-1-6.11 4.66-1-26.22-33.56-8.67 1.56-28.88-33.89c-46.06 5.7-88.32 12.96-124.34 22.78l3.67 7.11-47.25 11.77-105.31 23.78c-37.99 5.25-86.98 15.53-139.77 27.56l-4-21.56 17.91 3.5 2.59-6.08-13.95-8 97.28-32.11 7.67 6.66 31.33-9.22 102.33-25.33v-2h8.11l42-10.67-6.11-8.78 125.34-23.33 26.66 36.45 9.45-1 26.77 34.55-4.77 1.56.11 5.22 5.33 6.11 13.56 20-8.5 2.69.11 13.56 5-.22z" class="st0"/><path id="Floor_A_30" d="m2626.17 2348.47-43.34-51.33-8.22-3.45 2.89-6.11-29.78-32.55c-41.89 5.87-83.6 13.02-125.11 21.44l8.11 7.34-46 10.33-7.22 1-103.78 24c-47.73 6.11-95.7 14.97-143.89 26.44l-2.89-21.66 15.23 1.55h2.16l.23-2.61 2.83-1.39.5-2.28-16.33-13.91c52.79-12.03 101.78-22.31 139.77-27.56l105.31-23.78 47.25-11.77-3.67-7.11c36.02-9.82 78.28-17.08 124.34-22.78l28.88 33.89 8.67-1.56 26.22 33.56-4.66 1 1 6.11 1.55 3.44 17.45 20.78-9.95 2.86 1.78 13.56 3.11-1.11 5.5 7.11z" class="st0"/><path id="Floor_A_29" d="m2629.81 2388.25-42.78-49.44-7.22-2v-7.23l-28.12-31c-41.64 4.86-83.73 11.45-126.22 19.56l7.45 7.78-45.34 9.33-7.66 2-103.78 23.11-33.78 8.22-5.67-7.11c-31.85 7.91-64.57 17.78-97.93 29.11l-5.84-19.22 14.77.58v-13.66l-17.86-12.7c48.19-11.47 96.16-20.33 143.89-26.44l103.78-24 7.22-1 46-10.33-8.11-7.34c41.51-8.42 83.22-15.57 125.11-21.44l29.78 32.55-2.89 6.11 8.22 3.45 43.34 51.33-9.36 3.34 1.11 14.88 4.44-.88 6.33 7.33z" class="st0"/><path id="Floor_A_28" d="m2633.4 2428.11-43.66-47.67-8.5-1.66 2.33-6.17-29.5-30.5c-45.65 5.94-88.36 12.41-126.67 19.67l8.5 7-53 8.83v2l-139.25 29.75-5.83-5.42c-35.5 7.86-68.73 16.55-97.92 26.75l-2.08-23.5 11.92-.75v-9.16l-10.98-6.7c33.36-11.33 66.08-21.2 97.93-29.11l5.67 7.11 33.78-8.22 103.78-23.11 7.66-2 45.34-9.33-7.45-7.78c42.49-8.11 84.58-14.7 126.22-19.56l28.12 31v7.23l7.22 2 42.78 49.44-8.91 3.19-.33 16.17 5.33-1.67 6.34 7.5z" class="st0"/><path id="Floor_A_27" d="m2636.01 2469.44-42.41-46.58-7.59.58 1.09-5.83-27.75-30.25c-48.13 5.46-92.59 11.3-128.92 18l7.17 6.67-192.42 39.33-6.08-6.33c-35.68 8.01-68.45 16.77-98.09 26.33l-1.83-19.25h11.83v-2.33l.17-3.92-2.75-4.25 2.5-2.5 1.25-2-12.28-6.42c29.19-10.2 62.42-18.89 97.92-26.75l5.83 5.42 139.25-29.75v-2l53-8.83-8.5-7c38.31-7.26 81.02-13.73 126.67-19.67l29.5 30.5-2.33 6.17 8.5 1.66 43.66 47.67-9.3 3.75.25 14.83 4.5-.75 6.66 7z" class="st0"/><path id="Floor_A_26" d="m2620.93 2487.31 4.75-2.34-26.33-26-10.84.67-27-27.17c-46.24 5.06-89.69 10.75-128.5 17.5l6.34 5.84-191.5 37.66-7.59-5.91c-32.6 6.79-65.59 14.67-98.91 23.5l-.75-16.92 11.25.83 1.08-1.41-2.33-7.17 1.5-5.83v-4.09l-11.09-5.11c29.64-9.56 62.41-18.32 98.09-26.33l6.08 6.33 192.42-39.33-7.17-6.67c36.33-6.7 80.79-12.54 128.92-18l27.75 30.25-1.09 5.83 7.59-.58 42.41 46.58-8.58 2.32-.5 16.42 5.58-.67 7.13 4.09.5 17.75z" class="st0"/><path id="Floor_A_25" d="m2622.85 2529.33 6.55-1.66-27-24.89-9.33 1.33-26.45-26.55c-41.87 4.49-85.9 10.07-131.55 16.44l7.89 5.67-193.11 36-8-5.34-99.22 21.89.33-18 9.89 1.11-1.84-18.83-9.66-5.44c33.32-8.83 66.31-16.71 98.91-23.5l7.59 5.91 191.5-37.66-6.34-5.84c38.81-6.75 82.26-12.44 128.5-17.5l27 27.17 10.84-.67 26.33 26-4.75 2.34 19.21 22.04-9.74 2.98.56 17.11 3.89-1 7.66 6.23 1.12 15.22z" class="st0"/><path id="Floor_A_24" d="M2647.01 2576.53v16l-19.66-19.78 6.66-2.11-27.55-23.56-10.56 1.23-27-23.56-126.33 14.56 1.55 6.55-52.44 6.36v2.42l-141.44 23-6.25-5.33-100.09 22.08-.25-18.08 11-.42v-11.17l-.83-6.66-11.19-5.84 99.22-21.89 8 5.34 193.11-36-7.89-5.67c45.65-6.37 89.68-11.95 131.55-16.44l26.45 26.55 9.33-1.33 27 24.89-6.55 1.66 20.78 20.56-9.62 3.42 2.56 16.88 3.44 1.12z" class="st0"/><path id="Floor_A_23" d="m2630.57 2615.63 5.33-1.8-25.83-21.83-10.33 1-25.84-22.17-132.33 13.17 1.67 7.67-49.5 3.66v3.5L2251.99 2620l-6.34-3.75-101.08 19.5v-17.67h10.67l.41-10v-4.83l-1.91-4.67-9.84-4.19 100.09-22.08 6.25 5.33 141.44-23v-2.42l52.44-6.36-1.55-6.55 126.33-14.56 27 23.56 10.56-1.23 27.55 23.56-6.66 2.11 19.66 19.78-9.29 2.86 1.67 18 3-.11 6.55 4.78.63 15.36z" class="st0"/><path id="Floor_A_22" d="m2653.86 2677.14-42.5-39.17-7.83-.33-26.5-20.17-132.17 13.5 1.33 6.34-49.45 4.83v2.17l-108.55 14.88-33.77 4.62-8.34-3.42-100.66 17.5.58-17 10.17-1.5.16-4.5 1.5-6.83v-4.92l-4-3.42-9.26-3.97 101.08-19.5 6.34 3.75 141.75-21.17v-3.5l49.5-3.66-1.67-7.67 132.33-13.17 25.84 22.17 10.33-1 25.83 21.83-5.33 1.8 19 17.79-8.71 2.33.17 19.72 11.33 4.67z" class="st0"/><path id="Floor_A_21" d="m2658.53 2719.64-43.67-29-7.83 2.19 1.16-8.86-28.33-19.16-132.67 13.08 8.17 3.58-199.33 26.95-7.34-3.56-102.33 16 .22-17.33 7.56-1.11 3.44-8.23v-6.44l-.44-4.56-11.72-5.3 100.66-17.5 8.34 3.42 33.77-4.62 108.55-14.88v-2.17l49.45-4.83-1.33-6.34 132.17-13.5 26.5 20.17 7.83.33 42.5 39.17-9.83 2.17 2.5 20.33 2.66-.17 7.84 4.67z" class="st0"/><path id="Floor_A_20" d="m2662.03 2763.76-43-27.02-7.78 2.18v-8.18l-26.89-16.67-134 10.89 1.11 4.67-49.5 6v2.66s-143.11 14.81-144.11 14.64-8.17-3.67-8.17-3.67l-101.16 14.5-.25-17 11.58-1.16 1.5-2.5-1.5-11.79s-1.87-7.09-2-7.5c-.12-.42-11.5-2.95-11.5-2.95l102.33-16 7.34 3.56 199.33-26.95-8.17-3.58 132.67-13.08 28.33 19.16-1.16 8.86 7.83-2.19 43.67 29-9.95 2.1.95 20.72 4.22-1.28 7.28 4.72z" class="st0"/><path id="Floor_A_19" d="m2665.5 2806.49-42.75-23.05-7.17 3.63v-9.42L2588 2761.9l-135.25 9.75 2.92 5.34-51.09 4 .42 2.41-109.92 9.42-154 12.17.84-17 16.66-1.17.75-7.42.59-1.91.83-9.17-12.22-4.56 101.16-14.5s7.17 3.5 8.17 3.67 144.11-14.64 144.11-14.64v-2.66l49.5-6-1.11-4.67 134-10.89 26.89 16.67v8.18l7.78-2.18 43 27.02-9.45.89-.08 22.5s4.33-1.08 4.58-1.25c.25-.16 6.92 4.59 6.92 4.59z" class="st0"/><path id="Floor_A_18" d="m2650.42 2839.99 6.08-1.34-27-13.91-10.5-.34-27.5-13.33-137.08 8.33 5.25 4.92-53.09 3.75v3.83l-110.66 7.25-154.84 11.25-.5-19.08 20.92-1.17v-18.5l-20.42-6.66 154-12.17 109.92-9.42-.42-2.41 51.09-4-2.92-5.34 135.25-9.75 27.58 15.75v9.42l7.17-3.63 42.75 23.05-9.42 1.58.17 23.5 4.58-1 7.42 3.75 1.58 16.83z" class="st0"/><path id="Floor_A_17" d="m2654.58 2887.32 5.5-2.33-27.08-11.63-10.83.96-24.34-12.75-137.75 7.33v4.46l-51.16 2.46.33 3.33-109.58 6.34-36.59 2.33-7.16-.58s-105.09 9.08-105.42 9.08 1.92-18 1.92-18l8-.83 1.16-21.09-20.5-6 154.84-11.25 110.66-7.25v-3.83l53.09-3.75-5.25-4.92 137.08-8.33 27.5 13.33 10.5.34 27 13.91-6.08 1.34 19.41 11.16-10.33 1.25.33 23.59 3.84-.67 8.08 2.67 1.42 17.08z" class="st0"/><path id="Floor_A_16" d="m2657.72 2933.35 7.17-3-28.5-9.67h-11l-24.83-10-136.34 7.5 1.34 3.83-52.84 1.67v3.5l-111.66 5.5-35.67 2.67-8.83-2-103.67 8.66v-18.08l9.58-1.25 1.5-23.75-13.47-2.61c.33 0 105.42-9.08 105.42-9.08l7.16.58 36.59-2.33 109.58-6.34-.33-3.33 51.16-2.46v-4.46l137.75-7.33 24.34 12.75 10.83-.96 27.08 11.63-5.5 2.33 18.59 7.75-9.78 1.94 1.5 24.5 10.83 1.67 2 18.83z" class="st0"/><path id="Floor_A_15" d="M2680.78 2968.26v17.45l-18.22-3.45s4.88-3.66 5.22-3.88c0-.32-26.67-7.56-26.67-7.56l-11.89 1.11-25.22-8.55-138.33 3.77v3.56l-50.34 2 .56 4-112.45 3.44-37.11 2.89-7.11-1.66-105.11 5.22-1.22-17.22h11.78l1.55-25.56-13.33-1.81 103.67-8.66 8.83 2 35.67-2.67 111.66-5.5v-3.5l52.84-1.67-1.34-3.83 136.34-7.5 24.83 10h11l28.5 9.67-7.17 3 20 8.66H2667l1.78 24.7z" class="st0"/><path id="Floor_A_14" d="M2684.42 3013.79v18l-42.56-11.78-8.33.34-27.11-6.22-139.23 3.33 1.34 2.44-163.34 6.89-34.55 2-8.45.56-108.08 2.44 1.33-17.08 10-.92 1.42-24.25-12.75-2.94 105.11-5.22 7.11 1.66 37.11-2.89 112.45-3.44-.56-4 50.34-2v-3.56l138.33-3.77 25.22 8.55 11.89-1.11s26.67 7.24 26.67 7.56c-.34.22-5.22 3.88-5.22 3.88l18.22 3.45-9.92 1.97 2 26.67z" class="st0"/><path id="Floor_A_13" d="M2687.92 3061.21v17.33l-42.34-8.89-5.66.78-26.11-4.11-193.78 6.11 1 3.56-149.22 1.44-7.78-.89-108.72 3.34.66-19.09 12.67.5v-27.83l-14.53-1.67 108.08-2.44 8.45-.56 34.55-2 163.34-6.89-1.34-2.44 139.23-3.33 27.11 6.22 8.33-.34 42.56 11.78-10.06 1.42 2.11 26.67z" class="st0"/><path id="Floor_A_12" d="m2693.15 3125.58-42.56-5.22-6.77.33-28.89-2.11-304.89 5.56-152.67 3.5-1.22-20.23h13l-.39-25.33-13.45-2.2 108.72-3.34 7.78.89 149.22-1.44-1-3.56 193.78-6.11 26.11 4.11 5.66-.78 42.34 8.89-9.33 1.34 2.23 27.81 11.33.22z" class="st0"/><path id="Floor_A_11" d="m2696.48 3173.08-42.58-.75-6.39-.36-27.47.22-184.89.78-123.17.78-154.08.66 1.08-18.5h11.5l-.55-28.56 140.11-3.21 304.89-5.56 28.89 2.11 6.77-.33 32.22 3.95 1.09 31.77 11.67-.75z" class="st0"/><path id="Floor_A_10" d="M2718.26 3202.78v19.08l-70.42 3.58-487.94-4.97.28-17 11.27-.22v-28.9l140.53-.6 123.17-.78 184.89-.78 27.47-.22 6.39.36 33.67.59 2.61 30.86z" class="st0"/><path id="Floor_A_9" d="m2724.65 3271.14-73.33 10.66-490.12-11.97.67-18.33h10.67v-30.9l475.3 4.84 44.18-2.25.63 29.39 31.55-1.38z" class="st0"/><path id="Floor_A_8" d="m2727.39 3319.68-71.17 18.33-493.39-19.22v-19.17l11.5.42-.38-29.9 477.37 11.66 44.1-6.41 1.63 25.45 29.17.34z" class="st0"/><path id="Floor_A_7" d="m2734.08 3370.76-72.22 22.45c-131.82-3.94-255.33-8.33-341.61-14.73-56.19-1.85-109.29-4.92-157.42-9.91l.92-19.67h11.75v-29.62l480.72 18.73 44.18-11.38 2.24 24.8 29.11-.67z" class="st0"/><path id="Floor_A_6" d="m2738.36 3420.54-72.34 29.5-223.66-11.17-119.17-7.33-158.22-12.67-.58-19.41 12.4-1.67v-27.84c44.36 4.19 92.65 6.86 143.46 8.53 86.28 6.4 209.79 10.79 341.61 14.73l42.97-13.36 2.11 22.36 28.25-1.59-1.11 13.25 3.78.09z" class="st0"/><path id="Floor_A_5" d="m2742.77 3471.76-71.83 36.33c-74.55-3.3-149.33-7.58-224.33-12.83l-121.84-10.17c-64.21-4.99-126.75-10.06-157.61-16.41v-18.64l11-2.61-.48-27.54 145.51 11.65 119.17 7.33 223.66 11.17 44.28-18.06.31 19.95 30.16 1.16z" class="st0"/><path id="Floor_A_4" d="M2745.72 3502.51v14.33l-2.95 6-2.05 2.34-6.5 4.5-59.83 37-224.5-16.17-123.67-12c-60.55-4.82-116.23-10.39-158.7-17.97l.84-19.33 11.74-2.17V3471c33.51 5.29 88.45 9.72 144.67 14.09l121.84 10.17c75 5.25 149.78 9.53 224.33 12.83l44.03-22.27.42 16.69z" class="st0"/><path id="Floor_A_3" d="m2751.77 3575.18-71.83 50.83-106.67-8.17-8.16-4.09-13.17-2.07-12.67-.67-12.77 1.72s-11.34 1.45-11.11.89c.22-.55-3.67-4.22-3.78-5.44s-5.89-2.45-5.89-2.45-1-8.66-1-9.33-9.33-5.33-9.33-5.33v3.22l-1 4.55-4.89 1.23s-7.11-.67-8.89-1.45-2.89 5.22-2.89 5.22l-8.56 2.89-15.89-.55-107.77-7.56-1.78-3.33-10.56-5.56v-6.44l-15.11-4.67 5-6.55 2.56-9.67-2-5.44 3.33-8.23-13.11-3.33-6.44.33v2.56l-.56 5-1.89 3.44-4.22.11-7.89-.55-1.11-3.67-6.33 8.34-7 7.55-8.45 4 5.45 8.22 1.11 4.45h-7.89l-1.11-3.78s-12.23-10.78-12.23-11.11-15.22-6.45-15.44-6.89-7.22 3.28-7.22 3.28l4.78 6.39-9.12 1.44-12.44 5.33-47.11-7.66 1.11-19.11 11.84-4.23v-25.93c40.35 6.4 90.51 11.3 144.55 15.6l123.67 12 224.5 16.17 43.92-27.16 1.3 13.66 30 1.66z" class="st0"/><path id="Floor_A_2" d="m2469.16 3606.73-15.89-.55-107.77-7.56-1.78-3.33-10.56-5.56-117.33-9.89-33.09-5.38v25.72l-10.8 4-2 19.33 55.67 10 10-5.17 14.16-8.66 17.34.16-6.5-10.16-12.5-10-11.84-3.84-14.16-1.16-14 .33-6-3.17 5.83-5.33 7.39-6 52.94 5.72 60.64 7.39 18.25 11.84-12.25 5.91s-4.5-.5-5-.16c-.5.33-2.5 7.5-2.5 8.16s1 9.17.84 9.84c-.17.66-5.17-5.17-5.17-5.17h-11.5s3 4.5 2.67 5.17c-.34.66-1.84 3.16-1.84 3.16s-4.33-3.16-3.66-1.33c.66 1.83 3.33 9.5 3.33 9.5v5.17l16 1.83 126.67 17 32.33.83 2.83-7-11.66-3.5-15.67-1.16-.33-4.17s2.83-8 4.16-8 16.84 4.83 16.84 4.83l8.66 7.84s1.34-.84.84-1.17-3.34-7.5-3.34-7.5l-9.83-12.17s-9.83-12.91-10.83-13.45c-1-.55-3.34-4.71-3.34-4.71l1.17-2 6.83-1.84 12.84-5.5 17.33 6.5 15.33 4 7.67.5 7.17-.33 4.66-1.83 34.17 5.21-10 15.62-2.33 4.67s15.16.66 15.16 1.66 3.17 5.84 3.17 5.84l-14 2.5s-8.17-1.5-7.83 0c.33 1.5 4.66 4.66 4.66 4.66l1 4.34 2.17 3.33s.17 3.17.67 4.33c.5 1.17 5.83 9.17 5.83 9.17l113.33 9.33 73-58.5-.66-19.66-32.5-3.17-.88-8.76-43.43 30.73-106.67-8.17-8.16-4.09-13.17-2.07-12.67-.67-12.77 1.72s-11.34 1.45-11.11.89c.22-.55-3.67-4.22-3.78-5.44l-25.28-3.9z" class="st0"/><path id="Floor_A_1" d="m2760.25 3678.16-21.78 18.67h-17.33l-10.89 6-5.34 12.67-9.77 7.11v8.89l-6 11.11-46.45-1.33s-6.67-3.12-9.11-3.34-7.56 1.11-8.22 1.11-10.22-2-10.89-2-10.45-11.33-10.45-11.33l-15.11-7.33-8-4.89-20.44-4.22s-14.89-.23-15.56 0c-.66.22-12.44 9.77-12.44 9.77l-2.89 11.11-72.89-8.88-127.44-17.89-54.11-7.45-103-20.11.55-18.11 11.67-5.22v-23.89l-14.42-5.1 55.67 10 86.47 12.2 16 1.83 126.67 17 32.33.83 84 10.67 113.33 9.33 42.43-34.01 1.63 6.8 30.44 2.67z" class="st0"/><path id="Floor_B_33" d="M2145.94 2242.81v9.33l-4.11.58h-.02l-20.48-14.89-101.92 19.33 5.42 6.34-33.75 10.08-8.17-1.58-82.33 23.25.42 2.75-23.67 6.83-8.08-5.92-74.84 26.42-1.5-14.42 12.09-4.41 1.25-10-12.25-6.75-.09-12.34 13.34-5.08-.34-10.08-12.41-2.5-.75-17.84 74.58-28.16 7.08 3.83 24.92-8.08 81-21.92 9.5.92 19.58-11.5 8-5 113.28-27.47-.33 16.41 11.86 8.59-2.33 8.22-8.22 3.33-.23 13.34 10 10.11 1 10.33-10.22 2 .89 17.45z" class="st0"/><path id="Floor_B_32" d="m2148.06 2281.14-2.59 6.08-8.29-1.62-13.68-9.3-104.78 19.23 9.55 5.22s-35.33 10-35.66 10-9.45-3.56-9.45-3.56l-82.33 20.45v6.89l-22.33 5.77-9.11-4.66-75.67 24.89-.81-14.67 12.48-3 .11-11.67-11.09-5.86 74.84-26.42 8.08 5.92L1901 2298l-.42-2.75 82.33-23.25 8.17 1.58 33.75-10.08-5.42-6.34 101.92-19.33 20.48 14.89-7.7 1.09v19.33z" class="st0"/><path id="Floor_B_31" d="m2147.89 2319.19-.5 2.28-2.83 1.39-.23 2.61h-2.16l-4.2-.43-19.39-15.38-125.44 38.81-10.23-2.19-81.89 19.33v4.67l-23.33 6-8-5.12-75.55 25.12-1.23-15.34 11.67-3 .89-11.89-11.75-5.52 75.67-24.89 9.11 4.66 22.33-5.77v-6.89l82.33-20.45s9.11 3.56 9.45 3.56 35.66-10 35.66-10l-9.55-5.22 104.78-19.23 13.68 9.3-9.62-1.88 4 21.56z" class="st0"/><path id="Floor_B_30" d="M2147.69 2358.28v10.91l-27.14-20.11s-126.91 36.33-127.25 36.33-9.33-1.08-9.33-1.08l-84 22.67-23.42 6.25-8-4.75-75.64 23.75-1.44-15.42 12.33-1.92 1.75-13.66-11.41-4.97 75.55-25.12 8 5.12 23.33-6v-4.67l81.89-19.33 10.23 2.19 125.44-38.81 19.39 15.38-11.03-1.12 2.89 21.66z" class="st0"/><path id="Floor_B_29" d="M2149.74 2397.28v9.16l-3.06.19-21.79-12.88-105.23 14.97 8.78 5.89-36.11 8.78-8.56-2.56-106.33 29.56-9-5.34-76.97 23-.92-6.66.92-8.89 11.86-1.67 1.44-15-11.86-3.58 75.64-23.75 8 4.75 23.42-6.25 84-22.67s9 1.08 9.33 1.08 127.25-36.33 127.25-36.33l27.14 20.11v2.75l-14.77-.58 5.84 19.22z" class="st0"/><path id="Floor_B_28" d="m2148.43 2441.61 2.75 4.25-.17 3.92v1.33l-22.62-18.64-108 16.74 11.5 4.68-39.34 8.5-8.5-1.5-83.33 21.5-24.67 5-8.66-4.17-75.67 20.83v-14.83l11.83-2.67.34-13.83-12.42-4.67 76.97-23 9 5.34 106.33-29.56 8.56 2.56 36.11-8.78-8.78-5.89 105.23-14.97 21.79 12.88-8.86.56 2.08 23.5 12.28 6.42-1.25 2z" class="st0"/><path id="Floor_B_27" d="m2152.1 2480.56-1.5 5.83.66 2.02-23.26-14.69-107.34 15.67 10.84 4.16s-35.84 7.34-36.5 7.34-11.5-2.17-11.5-2.17l-83.17 16v5.5l-24.33 4.53-9.34-4.7-76.33 21.34v-15.84l12.67-2.33.83-14.5-12.11-4.67 75.67-20.83 8.66 4.17 24.67-5 83.33-21.5 8.5 1.5 39.34-8.5-11.5-4.68 108-16.74 22.62 18.64v1h-11.83l1.83 19.25 11.09 5.11z" class="st0"/><path id="Floor_B_26" d="m2151.01 2516.5 1.2 12.26-22.88-14.21-106.25 14.09 7.42 4.41-36.34 7.09-9.5-2.92-85.5 20-23.33 5.42-7.83-4.25-78.59 19.5.92-14.75 11-2.09 2.08-15.58-13.08-4.08 76.33-21.34 9.34 4.7 24.33-4.53v-5.5l83.17-16s10.83 2.17 11.5 2.17 36.5-7.34 36.5-7.34l-10.84-4.16 107.34-15.67 23.26 14.69 1.67 5.15-1.08 1.41-11.25-.83.75 16.92z" class="st0"/><path id="Floor_B_25" d="M2154.65 2564.72v7.43l-25.01-17.12-106.25 13.83 7.91 5.17-37 5.5-8.91-2.67-85.67 14.92v6.25l-24.5 3.58-6.67-4.58-79.14 18.25-.52-15.09 12.41-2.66 1.09-15.42-12.98-4.22 78.59-19.5 7.83 4.25 23.33-5.42 85.5-20 9.5 2.92 36.34-7.09-7.42-4.41 106.25-14.09 22.88 14.21.64 6.57-9.89-1.11-.33 18 11.19 5.84z" class="st0"/><path id="Floor_B_24" d="M2155.65 2603.25v4.83l-.08 1.9-24.37-13.18-107.08 11.59 7.42 5.58-36.67 4.92-9.08-1.42-86.25 13.5v4.75l-23.67 4.25-8.92-3.5-78.06 15.92-.52-14.17 14.33-2.75-.41-15.75-12.88-4.44 79.14-18.25 6.67 4.58 24.5-3.58v-6.25l85.67-14.92 8.91 2.67 37-5.5-7.91-5.17 106.25-13.83 25.01 17.12v3.74l-11 .42.25 18.08 9.84 4.19z" class="st0"/><path id="Floor_B_23" d="M2157.83 2643.14v4.92l-.49 2.24-25.3-12.41-108.84 12 8.17 3.83-36.83 6.5-8.84-1.5-85.83 16.33-24.17 2.84-9.66-2.17-79 15 1.33-14.17 11.83-3.33 1.5-17.17-12.81-3.66 78.06-15.92 8.92 3.5 23.67-4.25v-4.75l86.25-13.5 9.08 1.42 36.67-4.92-7.42-5.58 107.08-11.59 24.37 13.18-.33 8.1h-10.67v17.67l9.26 3.97z" class="st0"/><path id="Floor_B_22" d="M2157.58 2687.75v1.48l-23.04-9.34-109.5 11.83 8 3.75-37.42 5.25-9.83-2.33s-85.42 11-85.67 11-.42 5.08-.42 5.08l-25 3.42-8.75-2.5-78 14.41v-14.91l10.59-2.59 2.16-16.83-13.66-4.75 79-15 9.66 2.17 24.17-2.84 85.83-16.33 8.84 1.5 36.83-6.5-8.17-3.83 108.84-12 25.3 12.41-1.01 4.59-.16 4.5-10.17 1.5-.58 17 11.72 5.3z" class="st0"/><path id="Floor_B_21" d="m2134.07 2723.8-109.23 8.23 7.34 5-36.67 4.22-9.44-1.89-86.78 8.33v7.22l-24.34 2.78-8.33-2.11-80.11 12.45v-15.23l13.44-1.89.23-17.77-12.23-3.34 78-14.41 8.75 2.5 25-3.42s.17-5.08.42-5.08 85.67-11 85.67-11l9.83 2.33 37.42-5.25-8-3.75 109.5-11.83 23.04 9.34v4.96l-3.44 8.23-7.56 1.11-.22 17.33s11.38 2.53 11.5 2.95c.11.35 1.52 5.67 1.91 7.13z" class="st0"/><path id="Floor_B_20" d="m2148.53 2763.76 12.22 4.56-.58 6.36-24.1-8.65-111 9.11 4.77 4.11-32 3.66-11-2.22-87.11 7v7.34l-24.89 3.11-9.33-2.67-79.89 12.11v-16.11l14.56-1.89-1.34-19.22-12.33-2.33 80.11-12.45 8.33 2.11 24.34-2.78v-7.22l86.78-8.33 9.44 1.89 36.67-4.22-7.34-5 109.23-8.23 25.7 7.14c.05.23.09.37.09.37l1.5 11.79-1.5 2.5-11.58 1.16z" class="st0"/><path id="Floor_B_19" d="M2161.5 2811.65v6.3l-25.21-10.37-140 16.78-9.78-2.78-86.22 8.33-.56 6.45-24.33 2.11-10.33-2.33-79.45 10.77v-15.88l12.45-1.34 1.33-20.33-13.78-1.78 79.89-12.11 9.33 2.67 24.89-3.11v-7.34l87.11-7 11 2.22 32-3.66-4.77-4.11 111-9.11 24.1 8.65-.25 2.81-.59 1.91-.75 7.42-16.66 1.17-.84 17z" class="st0"/><path id="Floor_B_18" d="m2161.58 2856.4-.15 2.66-24.59-7.91-139.22 16.54-10.67-1-88.66 10.11-22.34 3.34-11.22-2.67-79.78 9.78v-16.78l14-.44.78-21.78-14.11-1.34 79.45-10.77 10.33 2.33 24.33-2.11.56-6.45 86.22-8.33 9.78 2.78 140-16.78 25.21 10.37v12.2l-20.92 1.17.5 19.08z" class="st0"/><path id="Floor_B_17" d="m2163.97 2898.93-.4 6.26-24.39-6.61-111.34 5.45 5.45 3.44-36.34 2.44-9.33-2.77-88 3.77-.78 7.45-23.55 3-10.56-1.89-66.5 6.22-14.39 1.34-.66-16.67 13.89-.56.66-21.44-12.78-1.11 79.78-9.78 11.22 2.67 22.34-3.34 88.66-10.11 10.67 1 139.22-16.54 24.59 7.91-1.01 18.43-8 .83s-2.25 18-1.92 18z" class="st0"/><path id="Floor_B_16" d="m2166.22 2943.82-.21 3.42-27.5-4.16-108.44 5.56v3.33l-32.34 1.11-10.22-2.78-87.89 2.78-1 7.33-25.22 1.89-7.67-1.66-68.4 5.24-14.15 1.09v-16l14.22-.78.83-24.5 66.5-6.22 10.56 1.89 23.55-3 .78-7.45 88-3.77 9.33 2.77 36.34-2.44-5.45-3.44 111.34-5.45 24.39 6.61-1.1 17.49-9.58 1.25v18.08z" class="st0"/><path id="Floor_B_15" d="m2166.86 2989.54-.15 2.52-26.09-3.98-114.44 4 9.22 2.33-40 2.56-7.45-1.67-89 1.67v5.44l-25.77 2.67-8.11-1.55-67.96 3.56-14.6.77v-16.11l15.11-.89-.29-24.98 68.4-5.24 7.67 1.66 25.22-1.89 1-7.33 87.89-2.78 10.22 2.78 32.34-1.11v-3.33l108.44-5.56 27.5 4.16-1.34 22.14h-11.78l1.22 17.22z" class="st0"/><path id="Floor_B_14" d="M2168.64 3033.46v3.83l-26.69-3.43-145.11 7-8.44-1.22-89.22.55v5.56l-102.65 3.52-14.02.48v-16.11l13.78-.67.82-25.88 67.96-3.56 8.11 1.55 25.77-2.67v-5.44l89-1.67 7.45 1.67 40-2.56-9.22-2.33 114.44-4 26.09 3.98-1.27 21.73-10 .92-1.33 17.08z" class="st0"/><path id="Floor_B_13" d="M2168.64 3037.29v24l-12.67-.5-.66 19.09h-12.36l-145.44 5.31-8.67-.89-90.33.89v3.89l-102.33 2.31-15.78.36 2.11-16.67 12.89-1.11 1.13-24.7 102.65-3.52v-5.56l89.22-.55 8.44 1.22 145.11-7z" class="st0"/><path id="Floor_B_12" d="m2156.15 3107.41 1.2 19.92-362.64 6.6-14.31.26v-17.33l14.55-.56 1.23-24.91 102.33-2.31v-3.89l90.33-.89 8.67.89 145.44-5.31h12.36l13.45 2.2.39 25.33z" class="st0"/><path id="Floor_B_11" d="m2224.88 3174.12-53.43.41-377.07 2.83-13.98.11-.89-18.58 14.75-.09.45-24.87 362.64-6.6.02.31 12.56-.29.55 28.56h-11.5l-1.08 18.5 13.55-.06v.17z" class="st0"/><path id="Floor_B_10" d="m2160.18 3203.47-.28 17 12.64.13v2.21l-27.17-.62-351.63-2.4-15.04-.1-1-17.33 15.84-.17.84-24.83 377.07-2.84 53.43-.4-53.43.41v28.72z" class="st0"/><path id="Floor_B_9" d="m2212.4 3273.37-38.42-.86-380.93-8.59-12.62-.28-2.39-18.53 14.61.11 1.09-25.43 351.63 2.4 27.17.62v28.69h-10.67l-.67 18.33 12.75.31.03 2.36z" class="st0"/><path id="Floor_B_8" d="m2162.83 3318.79 12.67.49v1.21l-26.66-1.71-356.14-11.84-13.3-.44-1.36-17 13.86-1 1.15-24.58 380.93 8.58 38.42.87-38.42-.86.35 27.53-11.5-.42z" class="st0"/><path id="Floor_B_7" d="m2148.84 3318.78 26.66 1.71v28.41h-11.75l-.77 16.53-13.03 2.9c-15.65-.36-31.21-.76-46.7-1.2-5.17-.14-10.34-.29-15.5-.45a8325 8325 0 0 1-69.89-2.37c-3.94-.15-7.88-.31-11.8-.46-3.93-.16-7.86-.31-11.77-.48-11.75-.48-23.44-.99-35.08-1.53l-9.64-.45c-.61-.03-1.21-.05-1.81-.08-.09-.01-.18-.02-.27-.01l-11.48-.57c-2.89-.14-5.78-.28-8.66-.43-8.65-.44-17.27-.89-25.85-1.36l-13.02-.72c-7.07-.41-14.12-.82-21.14-1.24-.25-.01-.49-.02-.74-.04-5.72-.35-11.43-.7-17.12-1.06-3.58-.22-7.15-.45-10.71-.68-1.75-.11-3.49-.23-5.23-.34-1.87-.12-3.74-.25-5.6-.37-1.87-.12-3.73-.25-5.59-.38-10.43-.7-20.8-1.43-31.12-2.19-4.41-.32-8.8-.65-13.19-.98v-18.66l13.14-.56 1.52-24.78z" class="st0"/><path id="Floor_B_6" d="M2162.83 3368.57c4.61.48 9.26.94 13.96 1.38v27.84l-12.4 1.67.43 14.54-13.98 4.39c-7.93-.35-15.85-.71-23.76-1.07-12.13-.56-24.24-1.14-36.32-1.73-3.67-.18-7.34-.37-11.01-.55-6.67-.33-13.32-.67-19.97-1.02-7.55-.39-15.1-.79-22.63-1.2-6.6-.35-13.19-.71-19.78-1.09-1.24-.06-2.48-.13-3.72-.2-3.98-.22-7.94-.45-11.91-.68-5.04-.28-10.08-.57-15.11-.87-6.66-.39-13.31-.78-19.94-1.19-4.63-.27-9.24-.55-13.85-.85q-4.41-.255-8.82-.54a7999.104 7999.104 0 0 1-26.62-1.7c-1.11-.07-2.23-.14-3.35-.22-6.54-.42-13.08-.86-19.61-1.3-5.7-.38-11.4-.77-17.09-1.17-6.4-.43-12.79-.88-19.18-1.34q-9.84-.69-19.65-1.41c-6.27-.46-12.53-.92-18.78-1.39-3.72-.28-7.43-.56-11.14-.85-5.53-.41-11.05-.84-16.57-1.27h-.01c-4.66-.35-9.32-.72-13.98-1.09v-18l12.25-.66.94-25.08c10.32.76 20.69 1.49 31.12 2.19 1.86.13 3.72.26 5.59.38 1.86.12 3.73.25 5.6.37 1.74.11 3.48.23 5.23.34 3.56.23 7.13.46 10.71.68 5.69.36 11.4.72 17.12 1.06.25.02.49.03.74.04 7.02.43 14.07.84 21.14 1.24l13.02.72c8.58.47 17.2.92 25.85 1.36 2.88.15 5.77.29 8.66.43 4.51.23 9.03.44 13.56.66l9.64.45c11.64.54 23.33 1.05 35.08 1.53 3.91.17 7.84.32 11.77.48 3.92.15 7.86.31 11.8.46a8325.187 8325.187 0 0 0 69.89 2.37c5.16.16 10.33.31 15.5.45 15.49.44 31.05.84 46.7 1.2l13.03-2.9z" class="st0"/><path id="Floor_B_5" d="m2178.16 3447.43-11 2.61v15.3l-15.32 3.44c-4.22-.23-8.43-.45-12.63-.68-11.11-.61-22.15-1.22-33.11-1.84-2.15-.13-4.31-.25-6.46-.37-8.62-.49-17.18-.99-25.69-1.5-2.13-.12-4.25-.25-6.37-.38l-8.97-.54c-2.03-.12-4.06-.24-6.08-.37-11.84-.72-23.57-1.46-35.18-2.21-2.06-.13-4.12-.27-6.17-.4-4.16-.27-8.3-.54-12.43-.82-3.01-.2-6.02-.41-9.01-.61-2.85-.19-5.69-.39-8.52-.58-.19-.01-.38-.03-.57-.04-3.68-.26-7.35-.51-11-.77a6351 6351 0 0 1-50.81-3.78l-3.03-.24-5.72-.45a4076 4076 0 0 1-22.57-1.86c-1.86-.15-3.72-.31-5.57-.47q-8.325-.72-16.5-1.44c-1.81-.16-3.63-.33-5.43-.49-.08-.01-.15-.01-.23-.02-3.47-.32-6.91-.64-10.34-.95-3.63-.34-7.23-.68-10.81-1.03-3.18-.3-6.34-.61-9.48-.92-.33-.03-.66-.06-.99-.1-4.53-.45-9.02-.9-13.46-1.36-1.77-.18-3.54-.36-5.29-.55l-4.55-.48-2.25-.24-5-.54c-2.48-.27-4.94-.54-7.39-.81-4.11-.46-8.17-.92-12.19-1.39l-1.31-19.33h14.45l.84-24.47h.01c5.52.43 11.04.86 16.57 1.27 3.71.29 7.42.57 11.14.85 6.25.47 12.51.93 18.78 1.39q9.81.72 19.65 1.41c6.39.46 12.78.91 19.18 1.34 5.69.4 11.39.79 17.09 1.17 6.53.44 13.07.88 19.61 1.3 1.12.08 2.24.15 3.35.22a7999 7999 0 0 0 26.62 1.7q4.41.285 8.82.54c4.61.3 9.22.58 13.85.85 6.63.41 13.28.8 19.94 1.19 5.03.3 10.07.59 15.11.87 3.97.23 7.93.46 11.91.68 1.24.07 2.48.14 3.72.2 6.59.38 13.18.74 19.78 1.09 7.53.41 15.08.81 22.63 1.2 6.65.35 13.3.69 19.97 1.02 3.67.18 7.34.37 11.01.55 12.08.59 24.19 1.17 36.32 1.73 7.91.36 15.83.72 23.76 1.07l13.98-4.39.15 4.87 12.71 1.02z" class="st0"/><path id="Floor_B_4" d="M2167.16 3468.68c3.84.79 8.17 1.56 12.94 2.32v28.04l-11.74 2.17-.65 14.99-16.2 3.74-158-11.85-96.33-8.98-106.77-12.56-13.68-1.61v-18h13.11l.39-25c2.45.27 4.91.54 7.39.81l5 .54 2.25.24 4.55.48c1.75.19 3.52.37 5.29.55 4.44.46 8.93.92 13.46 1.36.33.04.66.07.99.1 3.14.31 6.3.62 9.48.92 3.58.35 7.18.69 10.81 1.03 3.43.32 6.87.64 10.34.95.08.01.15.01.23.02 1.8.16 3.62.33 5.43.49q8.175.735 16.5 1.44c1.85.16 3.71.32 5.57.47a4076.194 4076.194 0 0 0 22.57 1.86l5.72.45 3.03.24c2.82.23 5.66.45 8.51.66 13.86 1.07 27.97 2.11 42.3 3.12 3.65.26 7.32.51 11 .77.19.01.38.03.57.04 2.83.19 5.67.39 8.52.58 2.99.2 6 .41 9.01.61 4.13.28 8.27.55 12.43.82 2.05.13 4.11.27 6.17.4 11.61.75 23.34 1.49 35.18 2.21 2.02.13 4.05.25 6.08.37l8.97.54c2.12.13 4.24.26 6.37.38 8.51.51 17.07 1.01 25.69 1.5 2.15.12 4.31.24 6.46.37 10.96.62 22 1.23 33.11 1.84 4.2.23 8.41.45 12.63.68l15.32-3.44z" class="st0"/><path id="Floor_B_3" d="M2181.67 3522.91v25.93l-11.84 4.23-.7 12.06-15.62 5.65-33.83-.67-3.67-5.33-7.33-3.84-10-1.5-.84-3.66 1.17-8.5 1.83-2.84-7.33.5-5.67 4.84-5-2.67-1.66 8.5-2.67 2.33-1.67 1.17-3.66 4.83-79.56-6.33-82.11-2.17 2.03-1.62 16.14-12.88-1.34-6.5-11.16 1.5.33-10-4-6.16-4.17-4.34-6.16 6.67-8.84-4.83-5.5 6.5-1 4.33-7.5.17v15.83l-2.66 1.33-87.92-12.53-14.92-2.13.67-17.67 13.33-3.33 1.57-23.23 106.77 12.56 96.33 8.98 158 11.85 16.2-3.74-.19 4.34c4.57.82 9.29 1.61 14.15 2.37" class="st0"/><path id="Floor_B_2" d="M2182.74 3574.46v25.72l-10.8 4-1.25 12.06-14.85 7.27-20.83-1.9-15.67-10.5h16l11.5 10-7-15s-4.33-7.67-6.66-7.83c-2.34-.17-8-2.67-8-2.67l-14-1-9.84 4 18-25.83-50.33-5-7.33 3-17.34 3.68-2.83-4.52-6.33 5.5-1.67 8.67-5.67 3-12.5 7-10.5 12.33s1.5 2.5 2.17 2 15.83-15.66 16.5-15.66 10-2.5 10-2.5l-1.67 6.66 6.17 7.17 13.67 2.33.16 4.67-6.33 3-52.83-6.33-84.17-14.17-2.33-10.5 12.5-5.83 13.66 10 17.34 6.33 3.5 2.67s2.5-3.17 2-3.5c-.5-.34-8.34-14.5-8.34-14.5l-8-13.34-14.5 2.67s-4.02-7.17-4.34-7.17-9.99-4.16-9.99-4.16l-34.5-6.67h-8.33l-6-1.17s-1 5.17-1.5 6.34c-.5 1.16-11.17-2.67-11.67-2-.5.66-4.17 7.16-4.17 7.16s-4.33 1.84-3.66 2.67c.66.83 6.83.5 6.83.5l-4.67 11.35s-11.66 5.15-11.66 5.65-.67 6.83-.67 6.83h-.04c-.14-.04-.65-.12-1.46-.27q-.3-.045-.66-.12c-.27-.04-.55-.09-.86-.15-.36-.06-.75-.13-1.17-.2-.86-.16-1.84-.33-2.91-.52-.46-.08-.93-.16-1.43-.25l-.33-.06c-.65-.11-1.33-.23-2.03-.36-.93-.16-1.91-.34-2.91-.51-.37-.07-.74-.13-1.12-.2-3.86-.68-8.13-1.44-12.42-2.19l-2.57-.45c-.15-.03-.31-.05-.47-.08l-1.7-.3c-3.39-.6-6.69-1.18-9.68-1.7-7.58-1.33-13.2-2.3-13.41-2.3-.66 0-1.16-18.84-1.16-18.84l14.33 1.5 1.75-27.03 87.92 12.53 35.86 8.38-2.03 1.62 82.11 2.17 79.56 6.33 46.5 6.17 33.83.67 15.62-5.65-.41 7.05z" class="st0"/><path id="Floor_B_1" d="M2184.36 3628.61v23.89l-11.67 5.22-.35 11.47-16.11 6.2h-11.33s-.89-2.45 1.55-3.23c2.45-.77 4.45-1.88 5.23-2.44.77-.56.89-.67 4.89-2.78s4.11-2.78 4.11-2.78-.89-4.55-1.23-4.55-5.66-.11-7.11.33c-1.44.45-8.44 1.67-8.44 1.67l-2.45-4-7-2.56s-2.66-1.33-3.77-1c-1.11.34-5.23 3.56-5.34 4-.11.45-1 2.11-.66 2.78.33.67 2.55 1.78 2.55 1.78l3.67 4.44s-.22 2.67-.22 3-4.78 3.11-4.78 3.11l-45.67-3.22-3.11-3.55s-4.05-3.67-3.55-5c.5-1.34 8.83-15.06 8.83-15.06l1.5-6.44.5-15-2-8.84-27.83-1.33-7.67 3.33 2.5 9s2.67 11.67 2.83 13.34c.17 1.66.17 7.5.17 8.83s-1 8.83-1 8.83l-57.67-7-5.16-1.83-95.34-4.17-46.33-6.33-73.22-15.21.89-18.79 12 2.67 1.68-27.81c2.99.52 6.29 1.1 9.68 1.7l1.7.3c.16.03.32.05.47.08l2.57.45c4.29.75 8.56 1.51 12.42 2.19.38.07.75.13 1.12.2 1 .17 1.98.35 2.91.51.7.13 1.38.25 2.03.36l.33.06c.5.09.97.17 1.43.25 1.07.19 2.05.36 2.91.52.42.07.81.14 1.17.2.31.06.59.11.86.15q.36.075.66.12c.81.15 1.32.23 1.46.26h.04l78.5 6.68 84.17 14.17 52.83 6.33 6.33-3 83.17 10.5 20.83 1.9 14.85-7.27-.75 7.27z" class="st0"/></svg>