<svg xmlns="http://www.w3.org/2000/svg" id="Layer_1" viewBox="0 0 3840 5830"><defs><style>.st0{fill:#fff}</style></defs><path id="Floor_D_33" d="m1766.19 2275.5 1.34 9.5-2.5 3.5-5.17 1.5v3.83l10.5 10.67-1.5 4.67-5.33 2.5-1.17 5.83 4 6.17.33 7.16v5.5l-4.5 4.17-11.66 3.83.83 7.67 13.08 8.83 1.64 15.73-14.89 4.55-.66 10.89 22-9.11 80.78 31.33-13.45 5.22 24.33 12.89 18.78-3.94 33.17 5.33v-105l-32.67-8.16.17 13.5-31.83-7.5z" class="st0"/><path id="Floor_D_32" d="M1916.14 2433.72v40.67l-33.22-10.17-18.5 3.17-24.5-11.5 13.16-4.83-79.16-28.67-23.39 6v-7.83l14.72-5.67-3.33-19-11.39-3.89 22-9.11 80.78 31.33-13.45 5.22 24.33 12.89 18.78-3.94z" class="st0"/><path id="Floor_D_31" d="M1916.14 2474.39v31.58l-33.89-7-17.17 3.5-23.33-10.08 10.58-5-77.83-27.42-24.5 8.25-1.42-9.33 16.34-4.33-.59-19.59-13.8-6.58 23.39-6 79.16 28.67-13.16 4.83 24.5 11.5 18.5-3.17z" class="st0"/><path id="Floor_D_30" d="m1916.5 2540.47-32.17-6-20.08 4.42-24.83-10.17 12.91-4.66-78.58-25.84-24.5 7.75v-9l13.58-3.75v-18.83l-12.83-6.17 24.5-8.25 77.83 27.42-10.58 5 23.33 10.08 17.17-3.5 33.89 7z" class="st0"/><path id="Floor_D_29" d="M1916.5 2540.47v35.7l-33.39-4-19 3.11c-29.34-18.11-57.31-33.34-81.78-41.22l-33.08 9.77v-7.19l23.69-8 1.5-18.5-25.19-4.17 24.5-7.75 78.58 25.84-12.91 4.66 24.83 10.17 20.08-4.42z" class="st0"/><path id="Floor_D_28" d="m1917.33 2613.28-34.11-4.56-18.78 2.45c-19.71-13.5-47.99-26.19-79.77-38.56l-36.11 10.33v-6.77l19.22-10 1.78-17.78-20.31-4.56s.03-.01.08-.03l33-9.74c24.47 7.88 52.44 23.11 81.78 41.22l19-3.11 33.39 4z" class="st0"/><path id="Floor_D_27" d="M1917.33 2613.28v34l-34.22-3.11-18.11 3.11-22.56-7.34 10.23-4.44-80.45-19.56-23.66 6.89v-6.77l14.77-4.12 1.45-17.88-16.22-3.67v-7.45l36.11-10.33c31.78 12.37 60.06 25.06 79.77 38.56l18.78-2.45z" class="st0"/><path id="Floor_D_26" d="m1917.33 2647.28-.55 35.11-33-2.67-21.45 3.89-22-7.11 11.45-3.89-83.78-16.22-20 4.55v-6.77l17.33-2.89v-15.45l-17.33-7.44.56-5.56 23.66-6.89 80.45 19.56-10.23 4.44 22.56 7.34 18.11-3.11z" class="st0"/><path id="Floor_D_25" d="m1916.78 2682.39-.67 40-33.44-3.67-18.11 2c-22.21-10.36-53.61-20.68-87.67-31l-30.67 10.34 1.78-6.12 15.67-2.66 2-23.78-17.67-1.67v-4.89l20-4.55 83.78 16.22-11.45 3.89 22 7.11 21.45-3.89z" class="st0"/><path id="Floor_D_24" d="m1916.78 2755.22-32.92-2.66-20 3.27-82.75-25-34.08 12-.09-8.41 16.92-2.09 1.75-27-19.39.59v-5.86l30.67-10.34c34.06 10.32 65.46 20.64 87.67 31l18.11-2 33.44 3.67z" class="st0"/><path id="Floor_D_23" d="M1916.78 2755.22v38.17l-33.14-3.56-19.78 3.11-20.44-2.77 8.33-4.23-80.56-12.44-24.16 6.89v-6.78l15.05-2.11-.89-19.56h-14.16v-9.11l34.08-12 82.75 25 20-3.27z" class="st0"/><path id="Floor_D_22" d="m1916.78 2793.39-.81 35.5-33.89-1.89-19.11 2.67-21.11-2 10-3.89-85.67-9.34-20.88 8.12.66-8.56 16-1.22v-20.89l-15.44-.78.5-10.72 24.16-6.89 80.56 12.44-8.33 4.23 20.44 2.77 19.78-3.11z" class="st0"/><path id="Floor_D_21" d="m1916.78 2869.65-33.38-4.66-20.08 2.16-21.92-1.83 9.59-3.25-85.03-7.94-20.06 6.72.84-6.34 14.61-1.22v-20.44l-16.56-.78.52-9.51 20.88-8.12 85.67 9.34-10 3.89 21.11 2 19.11-2.67 33.89 1.89z" class="st0"/><path id="Floor_D_20" d="M1916.78 2869.65v33.49l-34.4-1.42-19.17 2.84-19.08-1.17 7.08-3-85.5-5.17-20.17 6.84v-7.34l15.25-.83v-20.08l-15.25-.5.36-12.46 20.06-6.72 85.03 7.94-9.59 3.25 21.92 1.83 20.08-2.16z" class="st0"/><path id="Floor_D_19" d="m1916.78 2903.14-.25 42.13-53.89-2.89-15.45-1.11 4.62-2.5-86.28-3.17-21.06 6.45v-6.39l16.06-1.28-.39-16.33-15.22-1.45.62-14.54s.01 0 .02-.01l20.15-6.83 85.5 5.17-7.08 3 19.08 1.17 19.17-2.84z" class="st0"/><path id="Floor_D_18" d="M1916.78 2979.85h-54l-97.5-2.83-6.28-.78-.67-16.5-13.86-.89v-16.8l21.06-6.45 86.28 3.17-4.62 2.5 15.45 1.11 53.89 2.89z" class="st0"/><path id="Floor_D_17" d="m1916.78 2979.85-.39 41.12-52.75-3.17h-98.75l-5.08-.42v-16.41h-15l.41-24.73H1759l6.28.78 97.5 2.83z" class="st0"/><path id="Floor_D_16" d="m1916.39 3020.97-.08 35.25-52.92.16-102.25 3.67.92-17.42h-17.84l.59-25.25h15l5.08.42h98.75z" class="st0"/><path id="Floor_D_15" d="m1916.39 3095.34-53.57-.75-94.5 6.75-.92-16.92-23.18.59v-24.59l16.92-.37 102.25-3.67 52.92-.16z" class="st0"/><path id="Floor_D_14" d="m1916.79 3131.58-54.5.66-11.5 3.25-91.83 7.92.33-16.08h-15.5l.84-24.67 23.69-1.32 94.5-6.75 53.57.75z" class="st0"/><path id="Floor_D_13" d="M1916.79 3131.58v40.91l-34.61 2.45v-3.78l-19.33.22-11.11 1.34-1.67 2.33-91.67 10.33-.11-17.11-14.78 2.17.28-25.39 15.17-1.64 91.83-7.92 11.5-3.25z" class="st0"/><path id="Floor_D_12" d="m1916.79 3172.49-.5 35.67-34.11 2-20.33-.56-10 2.12-1 2.88-93.35 13.29-.03-1.63s-.66-14.84-.66-15.17-14.75 1.75-14.75 1.75l.68-24.17 15.66-3.29 91.67-10.33 1.67-2.33 11.11-1.34 19.33-.22v3.78z" class="st0"/><path id="Floor_D_11" d="m1861.83 3248.99-12.25 2.23.42 2.91-91.67 15.92-1.15-16.92-14.44-.83v-21l14.44-3.36 93.67-13.34 1-2.88 10-2.12 20.33.56 34.11-2 .5 42.39z" class="st0"/><path id="Floor_D_10" d="m1916.79 3250.55-.57 35.05-42.22 3.78c-30.09 8.05-71.02 15.16-116.33 21.89l-1.56-14.67-14.33 1.56v-24.22l16.55-3.89 91.67-15.92-.42-2.91 12.25-2.23z" class="st0"/><path id="Floor_D_9" d="m1916.79 3328.83-43.57-.23c-31 10.05-69.36 17.19-111.11 23l-5.67 4.67-.88-17.67h-13.78l-.45-21.44 16.34-5.89c45.31-6.73 86.24-13.84 116.33-21.89l42.22-3.78z" class="st0"/><path id="Floor_D_8" d="M1916.79 3328.83v33.89l-43.79 4.66c-21.12 11.43-70.89 18.72-115 30.89v-15l-16.22 3.78v-25.67l14.66-5.11 5.67-4.67c41.75-5.81 80.11-12.95 111.11-23z" class="st0"/><path id="Floor_D_7" d="m1916.79 3362.72-.72 43.56-41.67.67c-16.24 8.6-71.55 21.52-118.89 33.56l-1.05-15.39h-12.68l-.6-19.45 16.82-7.4c44.11-12.17 93.88-19.46 115-30.89z" class="st0"/><path id="Floor_D_6" d="m1916.07 3406.28-.22 35.39-42.23 5.89c-14.6 7.32-54.33 19.11-91.55 30.45l-21.56 1.33-4.22 5.56-.78-18-14.33.66-.89-17.44 15.22-9.61c47.34-12.04 102.65-24.96 118.89-33.56z" class="st0"/><path id="Floor_D_5" d="M1916.07 3487.34c-27.53 3.75-43.67.58-43.67.58l-15.33 6.92-29.92 10.58-34.66 11.34s-17.75 6.16-18 6.25c-.25.08-15.09 1.66-15.09 1.66l-3.66 2.92-1.09-17.33h-14.36v-16.34l16-9.02 4.22-5.56 21.56-1.33c37.22-11.34 76.95-23.13 91.55-30.45l42.23-5.89z" class="st0"/><path id="Floor_D_4" d="m1917.01 3520.4-44.55 7.19c-32.53 15.74-67.68 29.59-106.28 40.97l-8.42-3.33-2.66 7.33-.09-18.83h-15.75v-15.83l16.48-10.31 3.66-2.92s14.84-1.58 15.09-1.66c.25-.09 18-6.25 18-6.25l34.66-11.34 29.92-10.58 15.33-6.92s16.14 3.17 43.67-.58z" class="st0"/><path id="Floor_D_3" d="M1917.01 3520.4v46.33l-42.33 3.67-84.67 34.88-22 7.12-14.22-3 .45-12.56h-14.98l-1.25-13.56 17.09-10.72 2.66-7.33 8.42 3.33c38.6-11.38 73.75-25.23 106.28-40.97z" class="st0"/><path id="Floor_D_2" d="M1917.01 3566.73v30.14l-4.82 1.89h-6.66c-1 0-11.67 3.89-15.22 5.22-3.56 1.33-6.23-.56-6.23-.89s.34-6.11.34-7.33 5.44-6 7.11-7.56c1.66-1.55-1.11-6.22-1.11-6.22s-5-.45-7.45-.89c-2.44-.44-11.78 7.78-11.78 7.78l-6.77 3.44s-3.67-7.22-4.89-7.89c-1.22-.66-6.34 2.23-6.34 2.23l6.34 11.66-8.34-5.66s-10-1-11.11-.56-9.44 1.56-9.44 1.56-7.11 5.55-7.67 5.77c-.55.23.34.56.34.56s7.66 7.67 8.44 8.22c.78.56.67 3 .67 3s-16.45-.67-18.23-.78c-1.77-.11-.33 8.89.67 8.67s6.22 1 6.22 1l-4.77 6.89-6.78 11-48.34 18.33s.67-9.22.73-9.39c.05-.16.44-8.44.44-8.44s1-3.33 1.22-3.45c.23-.11 7.11-1.05 7.11-1.05s4.89-2.89 5.06-3.17 6.33-3.61 6.5-3.66c.17-.06 6.94-3.12 7.17-3.45.22-.33 0-1.55 0-1.55s-7.56-4.56-7.73-4.67c-.16-.11-2.44-3.73-2.44-3.73l-5.78-.55-4.78 1.89-.68-2.69 22-7.12 84.67-34.88z" class="st0"/><path id="Floor_D_1" d="M1849.25 3634.42v28.67c-29.89 17.56-76.44 32.56-76.44 32.56s-.23-2.45-.12-3.23c.12-.77-6.11-9.11-8.77-12.11-2.67-3 1.44-4.89 1.44-4.89s3.78 5 4.22 5 4 7.34 4 7.34l12.78-1.34.67-1.55-5.11-3.78-9.34-7.89s-7.22-5.89-7.66-6.22c-.45-.33-16.11-.78-16.11-.78l1.33-2.89 11.05-7 48.34-18.33.84-1.37c1.97-.5 6.2-1.65 7.21-2.41 1.34-1 17.45-6.89 17.45-6.89s2.66-.66 3.22-1.22.33 8.22.33 8.22 4.11-3.66 5.78-5.44 2.56 2 2.56 2z" class="st0"/><path id="Floor_C_33" d="M2039.97 2394.48v6.33l-24.22-7.66-70.61 33.83-29 10.99v-106.48l17.94 8.04 11.34 4.34 70.33-34h5.72l1.17 6.94 16.17 3.17-1.67 4.83-13.5 12.84 1 14 8.33 2.96 4.5 2.54 1.5 4.5-7.33 7-7.17 5.77 1.67 18.23z" class="st0"/><path id="Floor_C_32" d="m2042.03 2436.59-1.34 3.89-24-8.56-70.55 30.56 27.44 7.44-44.22 4.47-13.22-3.92v-32.5l29-10.99 70.61-33.83 24.22 7.66-6.83 3.67s-2.67 5.78-3 5.89-4.45 1.22-4.45 1.22l-.66 14.11 14 5.22z" class="st0"/><path id="Floor_C_31" d="m2042.03 2470.76-1.89 6.91-21.67-7.5-73.16 28.05 26.75 7.75-42.17 1.45-13.75-1.82v-35.13l13.22 3.92 44.22-4.47-27.44-7.44 70.55-30.56 24 8.56-15.63 7.03v16.67z" class="st0"/><path id="Floor_C_30" d="m2042.03 2511.06-1 6-23.34-9.64-71.41 27.39 28.58 9.34-58.38-5.5-.34-32.68v-.37l13.75 1.82 42.17-1.45-26.75-7.75 73.16-28.05 21.67 7.5-5.95 2.06-1.91 3.08-6.5 5.84-.34 14.33 14.7 4.44z" class="st0"/><path id="Floor_C_29" d="m2042.53 2550.78-1.92.92-23.42-6-73.16 25.42 30.83 5.75-26.83.75-31.52-.79v-.66l-.01-35.7-.02-1.82 58.38 5.5-28.58-9.34 71.41-27.39 23.34 9.64s-6.25.22-6.25.47-.75 3.84-1 4.17-3.84 2.75-3.84 2.75l-4 .58-1.41 16.42 16.5 4.83z" class="st0"/><path id="Floor_C_28" d="m2041.86 2587.78-.5 3.59-26.08-6.67-66.92 23.25 2 8.42-33.09-5.81-.76-33.73 31.52.79-4-6.5 73.16-25.42 23.42 6-2.83.92-2.25 6.08-6.17 3.58h-3.17l-1.25 17.75 14.92 3.67z" class="st0"/><path id="Floor_C_27" d="m2041.86 2627.95-21.8-4.89-70.23 19.67v9.22l-32.51-4.2v-.47l.01-34-.06-2.72 33.09 5.81-2-8.42 66.92-23.25 26.08 6.67s-6.53 1.25-6.53 1.58-.77 4.33-.77 4.33l-4.23 5.67h-5l.89 15.67 15.64 3.44z" class="st0"/><path id="Floor_C_26" d="M2025.83 2641.17v17.23l16.03 3v5.55l-25.25-6.55-70.67 19.77-.55 5.89-28.61-3.49v-.18l.54-34.64 32.51 4.2v-9.22l70.23-19.67 21.8 4.89v6.11s-6.25 1.34-6.36 1.67-2.89 6.67-2.89 6.67z" class="st0"/><path id="Floor_C_25" d="M2024.5 2677.62v18.55l16.89 4-.67 4.45-23.44-4.34-68 16v6.11l-33.15-1.12.65-38.7 28.61 3.49.55-5.89 70.67-19.77 25.25 6.55v3.22l-6.03 2.23-8.77 4.66z" class="st0"/><path id="Floor_C_24" d="m2041.86 2738.84-.47 4.22-21.67-3.11-72.44 13.22 1.11 5.45-31.61-3.09v-.31l-.67-32.83.02-1.12 33.15 1.12v-6.11l68-16 23.44 4.34-.66 4.66-5.45 2.12s.11 2.77 0 3.22c-.11.44-2.11 4.11-3 4.22s-6.67 0-6.67 0l1.56 17.11z" class="st0"/><path id="Floor_C_23" d="M2028.06 2760.51v14.77l13.33 2.78v4.45l-23.56-3.34-68.11 11.34v5l-32.98-.47.04-1.65v-37.86l31.61 3.09-1.11-5.45 72.44-13.22 21.67 3.11v8l-9.89 2.78z" class="st0"/><path id="Floor_C_22" d="m2042.94 2818.06-.55 2.34-24-2-70.22 9.44.89 4.22-33.09-3.08v-.09l.77-33.85 32.98.47v-5l68.11-11.34 23.56 3.34-.89 3.33-4.11 6.22-3.56 5.89h-5.89v16.49z" class="st0"/><path id="Floor_C_21" d="M2042.39 2820.4v8l-4.11.66-2.78 4.78-1.89 3.56h-7v21.11l-76.78 6.89.45 7.66-33.5-1.83v-1.58l-.81-40.67 33.09 3.08-.89-4.22 70.22-9.44z" class="st0"/><path id="Floor_C_20" d="M2043.39 2861.62v4.78s-3.33 1.22-3.78 1.33c-.44.11-4.61 4.89-4.61 4.89s-.94 2.55-1.06 3.11c-.11.55-1.33 3.33-1.33 3.33l-5.55 1.22-.45 14.56 1.22 4.22-81.33 4.67h-29.72v-32.49l33.5 1.82-.45-7.66 76.78-6.89z" class="st0"/><path id="Floor_C_19" d="m2043.39 2899.62-.33 4.11-4.67 3.22s-1.22 1.56-1.33 2.11c-.12.56-.45 5.45-.45 5.45s-.33 3.33-.55 3.66c-.23.34-1 1.45-1 1.45h-10.45l.78 18.22-75.11 3.67-33.73.85.23-38.63h29.72l81.33-4.67z" class="st0"/><path id="Floor_C_18" d="m2043.39 2946.9-9 4v5l-.89 6.5-10.33 1-1.17 16.45-76.17 1.21-29.06-.68.01-.53-.25-34.58.02-2.91 33.73-.85 75.11-3.67 17.28 2.56z" class="st0"/><path id="Floor_C_17" d="m2043.44 2993.23-4.38 1.33s-1.34 2.92-1.84 4.04c-.5 1.13-1.83 3.13-1.83 3.13h-9l-1 17.33-88.5-1.68v6.18l-20.5-1.74v-.85l.38-40.59 29.06.68 76.17-1.21h16.06s5.16 1.38 5.33 2.55c.17 1.16-.17 4.66 0 6.5.17 1.83.05 4.33.05 4.33" class="st0"/><path id="Floor_C_16" d="m2038.39 3032.9-1.33 5.81 1.16 3.52v.83h-10.66l-.17 15.5-111.08-1.91v-.43l.08-34.39 20.5 1.73v-6.18l88.5 1.68 16.67 2.84 3.16 8.5z" class="st0"/><path id="Floor_C_15" d="M2046.72 3066.73c-2.83 1.5-5.33 1.17-6.16 3.67-.84 2.5-1.5 4.16-1.84 6.5-.33 2.33 1.84 5.5 2.17 6.66.33 1.17 1.67 2.67 1.67 2.67l-15.17-3.17v17.5l-90.5-8-20.5 3.05v-.27l-.08-38.69 111.08 1.91 12 1.49h7.33s2.84 5.18 0 6.68" class="st0"/><path id="Floor_C_14" d="m2043.56 3101.34-.84 5.56-3.5 3.16-.16 5-2 1.34.5 6.16v2.67l-11.17-2v16.17l-78.83-7.82-30.77.2v-.2l-.4-35.97v-.01l20.5-3.04 90.5 8z" class="st0"/><path id="Floor_C_13" d="M2045.94 3144.34v3.56l-4 7.77h-2.66l-.67 6-.67 4-9.11-1.55-.89 16.89c-21.76.21-49.59-3.5-79.33-8.45l-31.83.67v-41.45l30.77-.2 78.83 7.82 19.55 4.94Z" class="st0"/><path id="Floor_C_12" d="M2041.17 3186.34v9.17h-2.5l-1 8.83-7.5 2.33-1 16-50.5-6.16-34.17-5.84-28.2-1.58-.01-.93.49-34.93 31.83-.67c29.74 4.95 57.57 8.66 79.33 8.45z" class="st0"/><path id="Floor_C_11" d="M2045.72 3227.89v16.84h-15.89l-.66 19.89-2.34-2.56-7.44.11-71.45-11.55-31.16.65.01-.72-.49-41.46v-.01l28.2 1.59 34.17 5.84 50.5 6.16z" class="st0"/><path id="Floor_C_10" d="m2046.28 3271.28-1.22 18.89h-14.89v13.45l-33.45-4.67-31.78-5.78-18.44-5-13.56-3.33-16.71.35.55-33.92 31.16-.65 71.45 11.55 7.44-.11 2.34 2.56z" class="st0"/><path id="Floor_C_9" d="M2045.72 3313.06v18l-15.55.56v12.55l-20.11-.66-23.78-5.34-38.45-10.55-31.04 1.67v-.46l-.57-43.23.01-.41 16.71-.35 13.56 3.33 18.44 5 31.78 5.78 33.45 4.67z" class="st0"/><path id="Floor_C_8" d="m2045.72 3373.06-15.55 1 .55 12.67h-14.44l-13.78-3-67.44-21.67-18.28 1.38.01-.72v-33.43l31.04-1.67 38.45 10.55 23.78 5.34 20.11.66v3.89l16.11 8.21z" class="st0"/><path id="Floor_C_7" d="m2048 3398.73-1.72 15.44h-15.06l-.5 14.23h-10.28l-10.33-1.56-7.55-2.89-11.34-3.22-10.22-2.11-16.78-5.22-9.55-3.45-8.78-2.89h-29.82v-.78l.71-42.84 18.28-1.38 67.44 21.67 13.78 3h14.44v4.11z" class="st0"/><path id="Floor_C_6" d="m2046.78 3443.01-1.17 13.66-14.33 1.45-.56 12.72-19.72-1.67-40.33-12.66-23-7.67-2.11-1.89-9.89-6.44-19.82 1.51v-.35l.22-34.61h29.82l8.78 2.89 9.55 3.45 16.78 5.22 10.22 2.11 11.34 3.22 7.55 2.89 10.33 1.56h10.28l-.78 4.05z" class="st0"/><path id="Floor_C_5" d="M2046.78 3486.23v12.83l-14.28 2.34-1.78 11.33-8.22 1-10-2-65.67-24.39-30.74.85-.02-.85-.22-45.32 19.82-1.51 9.89 6.44 2.11 1.89 23 7.67 40.33 12.66 19.72 1.67v7.39z" class="st0"/><path id="Floor_C_4" d="m2046.78 3543.23-14.95 1.17.34 11.83h-13.67l-22.33-8.67-49.5-18.66v-4.84l-12.84-6.16-16.82 2.61v-.11l-.92-32.21 30.74-.85 65.67 24.39 10 2 8.22-1v5.67l17.95 11.55z" class="st0"/><path id="Floor_C_3" d="M2047 3573.9v11.83l-14.83 2.33v9.84l-9.84 1.66-16-8.33 6.17-4.17 6.5-5.5s-2.67-6-3.33-6-13.67-6.5-13.67-6.5l-12-.5-10.83 5.84-4.67 6.66-2.17-17.66-9.16-10.5-1.5-2.34-6.84 11.17 1 5-4.5 3.83-17-11-3-.16-14.32 3.05v-41.94l16.82-2.61 12.84 6.16v4.84l49.5 18.66 22.33 8.67h13.67z" class="st0"/><path id="Floor_C_2" d="M2048.61 3619.23v9.17l-16 3v9.66l-14.17 1-79-51.66-8.66-3.5-13.77 4.42v-28.87l14.32-3.05 3 .16 17 11 23.17 10.5 31.83 10.17 16 8.33 9.84-1.66-.89 7s17.33 13.33 17.33 14.33" class="st0"/><path id="Floor_C_1" d="M2048.61 3663.56v7.84l-15.67 2.66-1.16 9.67-9.17 2.83-77.17-36.66-44.16-2.17 2.07-48.38c1.13-.36 1.94-.59 2.18-.59h6.66l4.82-1.89v-5.55l13.77-4.42 8.66 3.5 79 51.66 14.17-1-.83 9.67z" class="st0"/></svg>